<?xml version="1.0" encoding="UTF-8"?>
<svg version="1.1" xmlns="http://www.w3.org/2000/svg" width="165" height="213">
<path d="M0 0 C54.45 0 108.9 0 165 0 C165 70.29 165 140.58 165 213 C110.55 213 56.1 213 0 213 C0 142.71 0 72.42 0 0 Z " fill="#000814" transform="translate(0,0)"/>
<path d="M0 0 C10.11114704 7.67052534 18.92547099 16.97513279 23.25 29.125 C23.600625 30.00027344 23.95125 30.87554687 24.3125 31.77734375 C26.78710176 38.59109096 27.61734837 44.81302957 27.625 52 C27.62653076 52.79631836 27.62806152 53.59263672 27.62963867 54.41308594 C27.53752808 59.32222014 26.80279609 63.46661172 25.25 68.125 C24.59 68.125 23.93 68.125 23.25 68.125 C23.1675 68.95 23.085 69.775 23 70.625 C22.22437439 74.2445862 21.00128296 76.8898851 19.2734375 80.125 C18.10025656 82.3157955 18.10025656 82.3157955 17 85.5625 C15.3885799 88.84289091 14.02647507 90.5842359 11.5625 93.1875 C1.24101978 104.34534326 -4.5220088 118.11093176 -5.75 133.125 C-26.52762521 134.01267039 -46.97972192 134.2533954 -67.75 133.125 C-67.75 131.475 -67.75 129.825 -67.75 128.125 C-68.41 128.125 -69.07 128.125 -69.75 128.125 C-70.4552514 119.66198324 -68.33944155 114.23202238 -63.125 107.625 C-62.34125 106.8 -61.5575 105.975 -60.75 105.125 C-60.09 105.125 -59.43 105.125 -58.75 105.125 C-58.523125 104.568125 -58.29625 104.01125 -58.0625 103.4375 C-56.38891899 100.48880964 -54.14706987 98.52206987 -51.75 96.125 C-50.43258439 94.34011433 -49.18381313 92.52650913 -47.9609375 90.67578125 C-46.75 89.125 -46.75 89.125 -43.75 87.125 C-42.55767387 85.07496045 -42.55767387 85.07496045 -41.75 83.125 C-41.09 83.125 -40.43 83.125 -39.75 83.125 C-39.37294922 82.00931641 -39.37294922 82.00931641 -38.98828125 80.87109375 C-37.65649999 77.91764824 -36.28909036 76.3862145 -33.9375 74.1875 C-31.4475939 71.80565493 -29.12740883 69.46062372 -27 66.75 C-23.84749304 63.07207521 -23.84749304 63.07207521 -20.75 62.125 C-18.3125 63.171875 -18.3125 63.171875 -15.75 64.875 C-12.8004135 66.79942534 -9.9375264 68.6197792 -6.75 70.125 C-4.70054044 62.66496721 -3.29224191 55.31582917 -2.28515625 47.6484375 C-1.58967559 43.06943348 -0.50546734 38.62291087 0.5859375 34.125 C1.47055807 30.1285965 1.9046105 26.20059605 2.25 22.125 C-2.09184202 22.30964366 -2.09184202 22.30964366 -5.75 24.125 C-7.2836724 24.4746303 -8.82761528 24.77966986 -10.375 25.0625 C-13.36641885 25.63289766 -16.20032443 26.25842946 -19.125 27.125 C-22.2890108 27.99783057 -25.26130871 28.52543598 -28.5 29 C-34.57867826 29.95171225 -40.06244671 31.81862997 -45.75 34.125 C-45.21324097 37.97603301 -43.63399077 39.44297587 -40.6875 41.875 C-39.95402344 42.48859375 -39.22054687 43.1021875 -38.46484375 43.734375 C-37.89894531 44.19328125 -37.33304688 44.6521875 -36.75 45.125 C-37.46901062 49.55766344 -38.79383424 51.72093034 -41.75 55.125 C-42.41 56.115 -43.07 57.105 -43.75 58.125 C-44.41 58.125 -45.07 58.125 -45.75 58.125 C-46.13091797 58.95064453 -46.13091797 58.95064453 -46.51953125 59.79296875 C-50.18081907 66.7319809 -55.22797394 72.86480935 -60.89453125 78.24609375 C-65.41050314 82.81910949 -69.43836277 87.99889991 -73.2578125 93.1640625 C-76.15514874 97.00895525 -76.15514874 97.00895525 -79.1328125 97.58984375 C-81.75 97.125 -81.75 97.125 -83.8828125 94.9296875 C-84.54023437 93.96289062 -85.19765625 92.99609375 -85.875 92 C-86.86886719 90.57300781 -86.86886719 90.57300781 -87.8828125 89.1171875 C-91.26464798 83.69776076 -93.62588423 78.11413055 -95.75 72.125 C-96.02070312 71.38894531 -96.29140625 70.65289062 -96.5703125 69.89453125 C-101.72341896 55.36076984 -101.33070447 38.22983527 -94.875 24.1875 C-92.00394625 18.82379499 -88.66315731 14.15260827 -84.75 9.5 C-84.26418457 8.92000244 -83.77836914 8.34000488 -83.27783203 7.74243164 C-79.80320322 3.81451487 -76.38572044 1.56567807 -71.75 -0.875 C-69.93049162 -2.05173351 -68.11750275 -3.23863488 -66.3125 -4.4375 C-45.72799726 -17.60594217 -19.19759036 -13.37774472 0 0 Z " fill="#FC750C" transform="translate(120.75,19.875)"/>
<path d="M0 0 C1.134375 0.020625 2.26875 0.04125 3.4375 0.0625 C3.62437405 6.36015533 3.07760899 11.77785433 1.5625 17.875 C1.19022198 19.45254032 0.82043218 21.03066989 0.453125 22.609375 C0.27587891 23.36927734 0.09863281 24.12917969 -0.08398438 24.91210938 C-0.93237713 28.72468255 -1.5206224 32.57396389 -2.1328125 36.4296875 C-2.77591021 40.37012255 -3.54898135 44.19846016 -4.5625 48.0625 C-5.5525 48.5575 -5.5525 48.5575 -6.5625 49.0625 C-8.85224316 47.81756252 -11.00440034 46.53608472 -13.1875 45.125 C-13.79851562 44.73892578 -14.40953125 44.35285156 -15.0390625 43.95507812 C-16.5514242 42.99803674 -18.05756117 42.03117189 -19.5625 41.0625 C-27.64521257 46.117107 -33.44572005 53.08032327 -38.5625 61.0625 C-39.5525 61.5575 -39.5525 61.5575 -40.5625 62.0625 C-41.01625 62.825625 -41.47 63.58875 -41.9375 64.375 C-43.57817047 67.08841655 -45.29640966 68.86305938 -47.5625 71.0625 C-48.44533776 72.13945571 -49.32006314 73.22310136 -50.1875 74.3125 C-50.97125 75.22 -51.755 76.1275 -52.5625 77.0625 C-53.2225 77.0625 -53.8825 77.0625 -54.5625 77.0625 C-54.871875 77.68125 -55.18125 78.3 -55.5 78.9375 C-56.1875 80.3125 -56.875 81.6875 -57.5625 83.0625 C-58.2225 83.0625 -58.8825 83.0625 -59.5625 83.0625 C-59.81 83.619375 -60.0575 84.17625 -60.3125 84.75 C-61.5625 87.0625 -61.5625 87.0625 -63.5625 89.5 C-65.49950009 91.98178137 -66.54820439 94.10413782 -67.5625 97.0625 C-71.12632757 93.24411332 -72.73677012 89.37633953 -74.546875 84.578125 C-75.91643352 81.1858339 -77.66247853 78.18396385 -79.5625 75.0625 C-78.82257813 74.83304687 -78.08265625 74.60359375 -77.3203125 74.3671875 C-73.99693772 72.79493937 -72.65878383 71.10135142 -70.4375 68.1875 C-67.10050664 63.93283347 -63.64732516 59.93130726 -59.9375 56 C-55.90053573 51.68764592 -52.39895885 47.21359961 -49.11328125 42.3046875 C-47.65877565 40.20169956 -46.12294019 38.29512173 -44.4375 36.375 C-38.97537676 30.86566155 -38.97537676 30.86566155 -36.6796875 24.08984375 C-37.83842306 21.42885368 -39.39577022 20.15249918 -41.625 18.3125 C-42.35847656 17.69890625 -43.09195313 17.0853125 -43.84765625 16.453125 C-44.41355469 15.99421875 -44.97945312 15.5353125 -45.5625 15.0625 C-45.48828125 13.2265625 -45.48828125 13.2265625 -44.5625 11.0625 C-42.23900054 9.95139458 -40.19336806 9.16693039 -37.75 8.4375 C-37.07727051 8.22440186 -36.40454102 8.01130371 -35.71142578 7.79174805 C-30.58628402 6.22563161 -25.4684644 5.19757389 -20.1484375 4.51953125 C-17.40803257 4.03519987 -15.13484077 3.10467022 -12.5625 2.0625 C-10.359375 1.68359375 -10.359375 1.68359375 -8.3125 1.5 C-4.23467566 1.02425383 -4.04269097 0.0709244 0 0 Z " fill="#03325B" transform="translate(119.5625,41.9375)"/>
<path d="M0 0 C0.66 0 1.32 0 2 0 C2 1.65 2 3.3 2 5 C22.46 5 42.92 5 64 5 C64 12 64 12 62.85351562 13.87329102 C60.35221109 15.39377579 58.2492321 15.66461619 55.34375 16.02734375 C53.60158203 16.26106689 53.60158203 16.26106689 51.82421875 16.49951172 C50.56222656 16.66467285 49.30023438 16.82983398 48 17 C45.29958303 17.40223777 42.60302698 17.82803027 39.90625 18.25390625 C38.5130677 18.4710041 37.11983816 18.68779897 35.7265625 18.90429688 C35.03208008 19.01249756 34.33759766 19.12069824 33.62207031 19.23217773 C32.19310053 19.45461171 30.76406263 19.67660847 29.33496094 19.89819336 C27.23356223 20.22406726 25.13238541 20.55133948 23.03125 20.87890625 C21.79955078 21.0704126 20.56785156 21.26191895 19.29882812 21.45922852 C17.28899748 21.78869676 15.28308106 22.14548706 13.28710938 22.55053711 C10.0750984 23.18176172 7.26188943 23.3020268 4 23 C1.85992516 21.19070956 1.10111456 19.65024785 0.671875 16.88989258 C0.4798488 14.34120443 0.37854517 11.8050046 0.3125 9.25 C0.27833984 8.36183594 0.24417969 7.47367188 0.20898438 6.55859375 C0.12671286 4.37252197 0.05749828 2.18684049 0 0 Z " fill="#14467B" transform="translate(51,148)"/>
<path d="M0 0 C1.56992005 0.12448953 3.13391335 0.32543613 4.69140625 0.55859375 C5.63564453 0.69716797 6.57988281 0.83574219 7.55273438 0.97851562 C9.04256836 1.20571289 9.04256836 1.20571289 10.5625 1.4375 C11.55958984 1.58509766 12.55667969 1.73269531 13.58398438 1.88476562 C16.05677439 2.25154309 18.52867321 2.62351004 21 3 C21 3.66 21 4.32 21 5 C22.65 5 24.3 5 26 5 C26 5.66 26 6.32 26 7 C28.65228812 8.07525194 31.28368454 9.09456151 34 10 C34 10.66 34 11.32 34 12 C34.598125 12.103125 35.19625 12.20625 35.8125 12.3125 C38.36316765 13.1141384 39.36691995 13.90032564 41 16 C41.165 16.70125 41.33 17.4025 41.5 18.125 C41.665 18.74375 41.83 19.3625 42 20 C43.485 20.495 43.485 20.495 45 21 C45 20.34 45 19.68 45 19 C45.66 19 46.32 19 47 19 C47 19.99 47 20.98 47 22 C48.485 22.495 48.485 22.495 50 23 C51.4477922 25.89558441 52 27.74188938 52 31 C53.32 31.66 54.64 32.32 56 33 C56 34.65 56 36.3 56 38 C53.57121695 35.64956479 51.25032821 33.29246763 49.05078125 30.72265625 C37.85699706 17.67998849 24.31088157 8.70001888 6.97265625 7.2421875 C-5.69598413 6.43030582 -5.69598413 6.43030582 -18 9 C-18.76570313 9.24492187 -19.53140625 9.48984375 -20.3203125 9.7421875 C-26.46906808 11.92027333 -31.30143799 15.13005789 -36.45703125 19.09765625 C-39 21 -39 21 -41.55078125 22.4453125 C-51.22404511 28.58559801 -58.0876421 41.58107581 -60.875 52.39453125 C-63.50117424 67.76859293 -61.60400044 82.46150774 -56 97 C-55.00573162 98.33761286 -54.00687126 99.67184788 -53 101 C-53 101.99 -53 102.98 -53 104 C-54.890625 103.78515625 -54.890625 103.78515625 -57 103 C-58.046875 100.93359375 -58.046875 100.93359375 -58.75 98.4375 C-58.99234375 97.61121094 -59.2346875 96.78492187 -59.484375 95.93359375 C-59.65453125 95.29550781 -59.8246875 94.65742187 -60 94 C-60.66 94 -61.32 94 -62 94 C-67.28419561 82.30067392 -68.37602917 74.70180768 -67 62 C-65.515 61.505 -65.515 61.505 -64 61 C-64.061875 59.2984375 -64.061875 59.2984375 -64.125 57.5625 C-64.14183841 52.85616438 -63.17621777 48.53683996 -62 44 C-61.34 44 -60.68 44 -60 44 C-58.47723534 40.85929789 -57.99774964 39.04200679 -58.1875 35.5 C-58 32 -58 32 -55.6875 29.1875 C-52.8200671 26.85354299 -50.51917967 25.17305989 -47 24 C-46.3162955 22.67532254 -45.65035814 21.34136367 -45 20 C-44.01 19.34 -43.02 18.68 -42 18 C-41.71125 17.21625 -41.4225 16.4325 -41.125 15.625 C-39.44746013 11.7107403 -36.61335737 9.98883193 -33.0625 7.8125 C-30.40778384 6.76670273 -27.8218041 6.46174976 -25 6 C-18.537486 4.89726806 -18.537486 4.89726806 -13 2 C-9.89957227 1.67553663 -6.7979275 1.48665559 -3.6875 1.28125 C-1.08403248 1.29392201 -1.08403248 1.29392201 0 0 Z " fill="#340C12" transform="translate(84,2)"/>
<path d="M0 0 C1.85392146 1.85392146 1.23544204 4.42453037 1.328125 6.89453125 C0.88799635 9.7186901 -0.04094929 10.92188663 -2 13 C-4.56518555 13.78955078 -4.56518555 13.78955078 -7.63671875 14.1953125 C-8.76464844 14.35281982 -9.89257812 14.51032715 -11.0546875 14.67260742 C-12.25351563 14.82189697 -13.45234375 14.97118652 -14.6875 15.125 C-15.90308594 15.29040283 -17.11867187 15.45580566 -18.37109375 15.6262207 C-21.91188604 16.10342722 -25.45482489 16.55665912 -29 17 C-29.91990723 17.11617676 -30.83981445 17.23235352 -31.78759766 17.35205078 C-35.24233914 17.78638867 -38.69677583 18.20999467 -42.15625 18.60546875 C-45.06810314 18.9211124 -45.06810314 18.9211124 -48 20 C-49.39439664 20.06665376 -50.79169875 20.08538199 -52.1875 20.0625 C-54.0746875 20.0315625 -54.0746875 20.0315625 -56 20 C-59.03541315 14.77908938 -59.03541315 14.77908938 -58.875 11.25 C-58 9 -58 9 -55 7 C-52.69654964 6.59590807 -50.37561232 6.28879841 -48.05078125 6.03515625 C-47.36050339 5.95631699 -46.67022552 5.87747772 -45.95903015 5.79624939 C-43.74430551 5.54395199 -41.5286162 5.30224326 -39.3125 5.0625 C-36.43274358 4.74806803 -33.55383756 4.42729913 -30.67578125 4.09765625 C-29.60410202 3.97519028 -29.60410202 3.97519028 -28.51077271 3.85025024 C-22.0969106 3.08147499 -15.80170461 1.88876431 -9.47729492 0.58374023 C-6.22413023 0.03762518 -3.28955372 -0.187015 0 0 Z " fill="#013B73" transform="translate(114,168)"/>
<path d="M0 0 C-1.86563976 6.45238335 -4.98933278 10.61269808 -10.8046875 14.07421875 C-18.67731882 17.66063968 -29.0735309 18.65973189 -37.3125 15.75 C-40.85407105 14.18002521 -44.06482564 12.56827757 -47 10 C-47.15625 6.86328125 -47.15625 6.86328125 -47 4 C-46.0867395 3.92483154 -46.0867395 3.92483154 -45.1550293 3.84814453 C-32.00465556 2.90667458 -32.00465556 2.90667458 -19 0.875 C-12.71531092 -0.43730049 -6.38934831 -0.16789528 0 0 Z " fill="#00315B" transform="translate(111,188)"/>
<path d="M0 0 C1.56992005 0.12448953 3.13391335 0.32543613 4.69140625 0.55859375 C5.63564453 0.69716797 6.57988281 0.83574219 7.55273438 0.97851562 C8.54595703 1.12998047 9.53917969 1.28144531 10.5625 1.4375 C11.55958984 1.58509766 12.55667969 1.73269531 13.58398438 1.88476562 C16.05677439 2.25154309 18.52867321 2.62351004 21 3 C21 3.66 21 4.32 21 5 C22.65 5 24.3 5 26 5 C26 5.66 26 6.32 26 7 C28.65228812 8.07525194 31.28368454 9.09456151 34 10 C34 10.66 34 11.32 34 12 C34.598125 12.103125 35.19625 12.20625 35.8125 12.3125 C38.36316765 13.1141384 39.36691995 13.90032564 41 16 C41.165 16.70125 41.33 17.4025 41.5 18.125 C41.665 18.74375 41.83 19.3625 42 20 C43.485 20.495 43.485 20.495 45 21 C45 20.34 45 19.68 45 19 C45.66 19 46.32 19 47 19 C47 19.99 47 20.98 47 22 C48.485 22.495 48.485 22.495 50 23 C51.4477922 25.89558441 52 27.74188938 52 31 C53.32 31.66 54.64 32.32 56 33 C56 34.65 56 36.3 56 38 C53.57121695 35.64956479 51.25032821 33.29246763 49.05078125 30.72265625 C37.85699706 17.67998849 24.31088157 8.70001888 6.97265625 7.2421875 C-5.63699257 6.47345768 -15.12693215 7.877407 -27 12 C-26 9 -26 9 -24.07421875 7.9375 C-23.28660156 7.628125 -22.49898437 7.31875 -21.6875 7 C-19.15029976 5.99350734 -17.20002109 5.16641099 -15.09375 3.4140625 C-12.30401584 1.529951 -10.14955975 1.52945587 -6.8125 1.375 C-3.09066184 1.50923278 -3.09066184 1.50923278 0 0 Z " fill="#4F110F" transform="translate(84,2)"/>
<path d="M0 0 C0.66 0 1.32 0 2 0 C2 1.65 2 3.3 2 5 C8.27 5.33 14.54 5.66 21 6 C21 6.66 21 7.32 21 8 C22.32 8.33 23.64 8.66 25 9 C24.34 9.86625 23.68 10.7325 23 11.625 C20.87304615 15.21423463 20.61209028 16.92694798 21 21 C9.26446281 23.6446281 9.26446281 23.6446281 4 23 C1.88258286 21.18363743 1.09993621 19.64021402 0.6706543 16.89013672 C0.47992204 14.34142266 0.37854342 11.80493705 0.3125 9.25 C0.27833984 8.36183594 0.24417969 7.47367188 0.20898438 6.55859375 C0.12671286 4.37252197 0.05749828 2.18684049 0 0 Z " fill="#013060" transform="translate(51,148)"/>
<path d="M0 0 C2.54469163 0.97913032 3.75136687 1.49378296 4.9765625 3.98828125 C5.19054687 4.75527344 5.40453125 5.52226563 5.625 6.3125 C5.8621875 7.11945312 6.099375 7.92640625 6.34375 8.7578125 C6.5603125 9.49773438 6.776875 10.23765625 7 11 C7.37125 11.886875 7.7425 12.77375 8.125 13.6875 C10.47347646 19.89418779 10.15111987 26.40317897 10.125 32.9375 C10.12886719 33.90107422 10.13273438 34.86464844 10.13671875 35.85742188 C10.12965959 41.02119674 9.85937527 45.90985415 9 51 C8.9175 52.051875 8.835 53.10375 8.75 54.1875 C7.76737445 57.87234579 6.05587004 58.83853095 3 61 C2.34 61.99 1.68 62.98 1 64 C0.34 64 -0.32 64 -1 64 C-1.33 64.99 -1.66 65.98 -2 67 C-2.66 66.67 -3.32 66.34 -4 66 C-3.59007812 65.13117188 -3.18015625 64.26234375 -2.7578125 63.3671875 C-2.21898437 62.21476562 -1.68015625 61.06234375 -1.125 59.875 C-0.59132812 58.73804688 -0.05765625 57.60109375 0.4921875 56.4296875 C1.858743 53.32130479 2.98629528 50.23795004 4 47 C4.66 47 5.32 47 6 47 C8.37243035 32.37649492 7.54041809 19.75031034 2 6 C1.32034735 4.00437561 0.64934607 2.00569044 0 0 Z " fill="#3E0B0F" transform="translate(140,41)"/>
<path d="M0 0 C-1.54641425 4.63924275 -5.00758542 7.29475733 -9 10 C-12.5 10.4375 -12.5 10.4375 -15 10 C-15 9.01 -15 8.02 -15 7 C-17.97 6.67 -20.94 6.34 -24 6 C-24 7.65 -24 9.3 -24 11 C-22.68 11.66 -21.36 12.32 -20 13 C-24.51999163 12.46823628 -27.54812814 10.97021532 -31 8 C-31.16796875 4.85546875 -31.16796875 4.85546875 -31 2 C-27.52147832 1.65970492 -24.04210091 1.3290613 -20.5625 1 C-19.58861328 0.90460938 -18.61472656 0.80921875 -17.61132812 0.7109375 C-11.70951151 0.15825902 -5.92744322 -0.09807559 0 0 Z " fill="#00396E" transform="translate(95,190)"/>
<path d="M0 0 C1.125 3.75 1.125 3.75 0 6 C-0.66 6 -1.32 6 -2 6 C-2.17015625 6.65226562 -2.3403125 7.30453125 -2.515625 7.9765625 C-4.00890686 13.36190878 -5.72076312 17.40906837 -9 22 C-9.76939681 24.22602615 -9.76939681 24.22602615 -10 26 C-10.66 26 -11.32 26 -12 26 C-11.88893911 29.97968173 -11.75859767 33.95851611 -11.625 37.9375 C-11.5940625 39.05447266 -11.563125 40.17144531 -11.53125 41.32226562 C-11.30254279 47.82136223 -10.5763555 53.69457802 -9 60 C-8.875 63.0625 -8.875 63.0625 -9 65 C-16.69617133 53.455743 -16.09761516 37.56577388 -13.88671875 24.41015625 C-11.47849032 15.14855529 -6.66933703 6.83200379 0 0 Z " fill="#EF8D0C" transform="translate(36,30)"/>
<path d="M0 0 C1.85392146 1.85392146 1.23544204 4.42453037 1.328125 6.89453125 C0.88855159 9.71512732 0.01003537 10.98128197 -2 13 C-8.06576359 15.07745054 -14.64412946 15.23984417 -21 15 C-19.68 14.34 -18.36 13.68 -17 13 C-17 12.01 -17 11.02 -17 10 C-14.69 10 -12.38 10 -10 10 C-10 8.35 -10 6.7 -10 5 C-11.32 5.33 -12.64 5.66 -14 6 C-14 5.34 -14 4.68 -14 4 C-14.99 3.34 -15.98 2.68 -17 2 C-4.98821945 -0.3938068 -4.98821945 -0.3938068 0 0 Z " fill="#002A53" transform="translate(114,168)"/>
<path d="M0 0 C5.61 0 11.22 0 17 0 C17 6 17 6 15.90625 7.80078125 C13.18182438 9.51471294 10.67753928 9.76883773 7.5 10.1875 C6.3553125 10.34605469 5.210625 10.50460938 4.03125 10.66796875 C1 11 1 11 -2 11 C-3.6515288 5.89527463 -2.73676535 5.47353069 0 0 Z " fill="#012C57" transform="translate(98,154)"/>
<path d="M0 0 C2.86190603 4.29285904 4.98362463 8.91812314 6 14 C6.66 14 7.32 14 8 14 C8.33 16.31 8.66 18.62 9 21 C9.99 21.33 10.98 21.66 12 22 C7.38 22 2.76 22 -2 22 C-2 20.35 -2 18.7 -2 17 C-2.66 17 -3.32 17 -4 17 C-4.57374185 10.11509775 -3.4753869 5.97332123 0 0 Z " fill="#F4505F" transform="translate(55,131)"/>
<path d="M0 0 C0 0.66 0 1.32 0 2 C-0.99773437 1.69320313 -1.99546875 1.38640625 -3.0234375 1.0703125 C-20.13108361 -3.80162891 -36.42248444 -2.75608179 -53 3 C-52 0 -52 0 -50.4609375 -1.09765625 C-36.65302008 -7.48446449 -12.84594485 -10.18816315 0 0 Z " fill="#630F0D" transform="translate(110,11)"/>
<path d="M0 0 C0.33 0 0.66 0 1 0 C1.17015625 1.00417969 1.3403125 2.00835937 1.515625 3.04296875 C3.96622068 18.91853843 3.96622068 18.91853843 11 33 C11 33.99 11 34.98 11 36 C9.109375 35.78515625 9.109375 35.78515625 7 35 C5.953125 32.93359375 5.953125 32.93359375 5.25 30.4375 C5.00765625 29.61121094 4.7653125 28.78492187 4.515625 27.93359375 C4.34546875 27.29550781 4.1753125 26.65742187 4 26 C3.34 26 2.68 26 2 26 C-2.78514708 10.9823286 -2.78514708 10.9823286 -2 3 C-1.34 2.01 -0.68 1.02 0 0 Z " fill="#4F0D0F" transform="translate(20,70)"/>
<path d="M0 0 C1.1446875 0.12375 1.1446875 0.12375 2.3125 0.25 C1.9825 0.91 1.6525 1.57 1.3125 2.25 C-0.75 2.875 -0.75 2.875 -2.6875 3.25 C-2.15074097 7.10103301 -0.57149077 8.56797587 2.375 11 C3.10847656 11.61359375 3.84195313 12.2271875 4.59765625 12.859375 C5.44650391 13.54773438 5.44650391 13.54773438 6.3125 14.25 C5.59348938 18.68266344 4.26866576 20.84593034 1.3125 24.25 C0.6525 25.24 -0.0075 26.23 -0.6875 27.25 C-1.3475 27.25 -2.0075 27.25 -2.6875 27.25 C-2.935 27.78625 -3.1825 28.3225 -3.4375 28.875 C-5.01091984 31.8644977 -6.61850487 34.57247689 -8.6875 37.25 C-10.0075 37.25 -11.3275 37.25 -12.6875 37.25 C-12.6875 36.59 -12.6875 35.93 -12.6875 35.25 C-10.7075 34.755 -10.7075 34.755 -8.6875 34.25 C-8.6875 32.27 -8.6875 30.29 -8.6875 28.25 C-7.759375 28.12625 -7.759375 28.12625 -6.8125 28 C-4.50312433 27.43741541 -4.50312433 27.43741541 -3.4375 25.1875 C-3.06625 24.2284375 -3.06625 24.2284375 -2.6875 23.25 C-1.6975 23.25 -0.7075 23.25 0.3125 23.25 C0.3125 21.93 0.3125 20.61 0.3125 19.25 C1.3025 19.25 2.2925 19.25 3.3125 19.25 C2.8175 18.321875 2.3225 17.39375 1.8125 16.4375 C0.3125 13.25 0.3125 13.25 0.3125 10.25 C-0.30625 10.188125 -0.925 10.12625 -1.5625 10.0625 C-3.6875 9.25 -3.6875 9.25 -5.125 6.9375 C-5.6875 4.25 -5.6875 4.25 -4.625 1.9375 C-2.6875 0.25 -2.6875 0.25 0 0 Z " fill="#E3AD0E" transform="translate(77.6875,50.75)"/>
<path d="M0 0 C0 3.20395416 -0.74335022 5.09399739 -2 8 C-2.66 8 -3.32 8 -4 8 C-4.0825 8.78375 -4.165 9.5675 -4.25 10.375 C-4.4975 11.24125 -4.745 12.1075 -5 13 C-6.33333333 13.66666667 -7.66666667 14.33333333 -9 15 C-9.81171228 17.55519921 -9.81171228 17.55519921 -10 20 C-10.99 20.33 -11.98 20.66 -13 21 C-13.02578125 21.58265625 -13.0515625 22.1653125 -13.078125 22.765625 C-13.57601158 29.96234913 -15.50804526 36.25433647 -18 43 C-18.33 43 -18.66 43 -19 43 C-20.39162361 29.30023869 -13.33693927 15.99220216 -4.99609375 5.47265625 C-3.37042149 3.6039542 -1.72212261 1.77970118 0 0 Z " fill="#250E19" transform="translate(134,110)"/>
<path d="M0 0 C1.56992005 0.12448953 3.13391335 0.32543613 4.69140625 0.55859375 C5.63564453 0.69716797 6.57988281 0.83574219 7.55273438 0.97851562 C8.54595703 1.12998047 9.53917969 1.28144531 10.5625 1.4375 C12.05813477 1.65889648 12.05813477 1.65889648 13.58398438 1.88476562 C16.05677439 2.25154309 18.52867321 2.62351004 21 3 C21 3.66 21 4.32 21 5 C22.65 5 24.3 5 26 5 C26 5.66 26 6.32 26 7 C28.65228812 8.07525194 31.28368454 9.09456151 34 10 C34 10.66 34 11.32 34 12 C27.84765625 11.4140625 27.84765625 11.4140625 26 11 C25.505 10.01 25.505 10.01 25 9 C22.83164914 7.89878945 22.83164914 7.89878945 20.25 6.9375 C19.38890625 6.59589844 18.5278125 6.25429687 17.640625 5.90234375 C6.9293816 2.24214075 -4.93955836 4.0837504 -16 5 C-14.1364761 2.56308413 -13.20285126 2.03353368 -10.1171875 1.5234375 C-9.04726562 1.47445313 -7.97734375 1.42546875 -6.875 1.375 C-3.12161801 1.51369981 -3.12161801 1.51369981 0 0 Z " fill="#3C0A0F" transform="translate(84,2)"/>
<path d="M0 0 C0.33 0.66 0.66 1.32 1 2 C0.01 3.485 0.01 3.485 -1 5 C-1.66 5 -2.32 5 -3 5 C-3.12375 5.763125 -3.2475 6.52625 -3.375 7.3125 C-4 10 -4 10 -6 13 C-5.01 13 -4.02 13 -3 13 C-3.61538462 20.50769231 -3.61538462 20.50769231 -5.5625 23 C-6.036875 23.33 -6.51125 23.66 -7 24 C-9.75096132 20.05296854 -10.91363648 16.83635685 -11 12 C-9.1875 9.0625 -9.1875 9.0625 -7 7 C-6.34 7 -5.68 7 -5 7 C-4.731875 6.401875 -4.46375 5.80375 -4.1875 5.1875 C-3.01506533 3.02775192 -1.80630718 1.64209744 0 0 Z " fill="#F94B3E" transform="translate(67,118)"/>
<path d="M0 0 C2.475 0.495 2.475 0.495 5 1 C5 2.32 5 3.64 5 5 C5.99 5 6.98 5 8 5 C8 5.66 8 6.32 8 7 C8.928125 7.0928125 8.928125 7.0928125 9.875 7.1875 C12 8 12 8 13.3125 10.1875 C14.12935256 13.52916958 13.86465261 15.68549831 13 19 C12.34 19.99 11.68 20.98 11 22 C7.33333333 14.66666667 3.66666667 7.33333333 0 0 Z " fill="#023874" transform="translate(40,117)"/>
<path d="M0 0 C2.97 0 5.94 0 9 0 C9.33 0.66 9.66 1.32 10 2 C10.99 1.67 11.98 1.34 13 1 C12.67 2.98 12.34 4.96 12 7 C9.69 7 7.38 7 5 7 C5.33 8.32 5.66 9.64 6 11 C2.12315913 12.19287411 -0.91621923 13 -5 13 C-5 12.01 -5 11.02 -5 10 C-3.02 10 -1.04 10 1 10 C1 8.35 1 6.7 1 5 C1.66 5 2.32 5 3 5 C3 3.68 3 2.36 3 1 C2.01 0.67 1.02 0.34 0 0 Z " fill="#00376A" transform="translate(92,171)"/>
<path d="M0 0 C1.22589844 0.01353516 1.22589844 0.01353516 2.4765625 0.02734375 C3.41628906 0.04474609 3.41628906 0.04474609 4.375 0.0625 C4.735 5.4625 4.735 5.4625 3.25 7.9375 C0.59465017 9.5307099 -1.59289518 9.26464032 -4.625 9.0625 C-4.625 7.7425 -4.625 6.4225 -4.625 5.0625 C-5.285 5.0625 -5.945 5.0625 -6.625 5.0625 C-6.625 3.7425 -6.625 2.4225 -6.625 1.0625 C-4.21954362 -0.14022819 -2.67503047 -0.03821472 0 0 Z " fill="#0D508B" transform="translate(85.625,155.9375)"/>
<path d="M0 0 C0.66 0 1.32 0 2 0 C2 0.66 2 1.32 2 2 C2.66 2 3.32 2 4 2 C4.28875 2.804375 4.5775 3.60875 4.875 4.4375 C5.73262568 7.1326468 5.73262568 7.1326468 8 8 C7.67 9.65 7.34 11.3 7 13 C5.02 13 3.04 13 1 13 C0.67 13.66 0.34 14.32 0 15 C-0.66 15 -1.32 15 -2 15 C-2.08131463 13.56344146 -2.13933559 12.1255517 -2.1875 10.6875 C-2.22230469 9.88699219 -2.25710937 9.08648437 -2.29296875 8.26171875 C-1.93801608 5.52148416 -1.10633718 4.70828921 1 3 C0.67 2.01 0.34 1.02 0 0 Z " fill="#FD610D" transform="translate(31,65)"/>
<path d="M0 0 C0.66 0 1.32 0 2 0 C2 1.65 2 3.3 2 5 C2.99 5 3.98 5 5 5 C4.96519531 5.73605469 4.93039063 6.47210938 4.89453125 7.23046875 C4.57036226 14.62479476 4.57036226 14.62479476 8 21 C6.02 21.99 6.02 21.99 4 23 C-0.03812645 19.14591684 0.44742226 14.46956415 0.3125 9.25 C0.27833984 8.36183594 0.24417969 7.47367188 0.20898438 6.55859375 C0.12671286 4.37252197 0.05749828 2.18684049 0 0 Z " fill="#0A3877" transform="translate(51,148)"/>
<path d="M0 0 C0.80050781 0.12761719 1.60101563 0.25523438 2.42578125 0.38671875 C3.23402344 0.50660156 4.04226562 0.62648438 4.875 0.75 C5.48988281 0.85699219 6.10476562 0.96398437 6.73828125 1.07421875 C4.91323216 4.99722147 2.55557299 7.81209147 -0.26171875 11.07421875 C-2.3709343 9.16912083 -4.01482167 7.61739234 -5.19921875 5.01171875 C-5.26171875 3.07421875 -5.26171875 3.07421875 -4.05859375 1.43359375 C-2.26171875 0.07421875 -2.26171875 0.07421875 0 0 Z " fill="#FC4710" transform="translate(44.26171875,105.92578125)"/>
<path d="M0 0 C-1 2 -1 2 -2.70703125 2.67578125 C-3.40183594 2.88589844 -4.09664062 3.09601562 -4.8125 3.3125 C-8.90805334 4.75969199 -10.34180148 6.53628677 -13 10 C-20.85377358 16 -20.85377358 16 -24 16 C-22.6756205 12.0268615 -20.12369706 10.52791047 -16.8046875 8.296875 C-14.74750095 6.89224666 -14.74750095 6.89224666 -12.3125 4.3125 C-8.28100309 0.28100309 -5.67442827 -0.25792856 0 0 Z " fill="#480E11" transform="translate(67,7)"/>
<path d="M0 0 C0.66 0 1.32 0 2 0 C4.44025097 4.74493244 4.2983189 9.17266489 4.25 14.375 C4.25773438 15.2 4.26546875 16.025 4.2734375 16.875 C4.25728295 21.96368373 3.63722878 26.17927081 2 31 C1.67 31 1.34 31 1 31 C1 23.74 1 16.48 1 9 C0.67 9 0.34 9 0 9 C0 6.03 0 3.06 0 0 Z " fill="#F07708" transform="translate(144,57)"/>
<path d="M0 0 C-1.27518963 3.8255689 -2.57258371 4.91374661 -6 7 C-9.6875 7 -9.6875 7 -13 6 C-14.4375 3.9375 -14.4375 3.9375 -15 2 C-9.87080814 -0.10428384 -5.4389165 -0.21755666 0 0 Z " fill="#01437D" transform="translate(95,190)"/>
<path d="M0 0 C0.99 0.33 1.98 0.66 3 1 C2.44570312 2.01320313 1.89140625 3.02640625 1.3203125 4.0703125 C0.58828998 5.4217387 -0.14346679 6.77330887 -0.875 8.125 C-1.23980469 8.79015625 -1.60460937 9.4553125 -1.98046875 10.140625 C-4.06980244 14.01538929 -5.74424611 17.75687369 -7 22 C-7.66 22 -8.32 22 -9 22 C-7.82797436 13.61076387 -6.39168851 5.97285992 0 0 Z " fill="#F35D0F" transform="translate(124,118)"/>
<path d="M0 0 C2 3 2 3 1.9375 5.9375 C0.77285208 9.74201653 -0.80604397 10.74086037 -4 13 C-4.99 14.485 -4.99 14.485 -6 16 C-6.66 16 -7.32 16 -8 16 C-8.33 16.99 -8.66 17.98 -9 19 C-9.66 18.67 -10.32 18.34 -11 18 C-8.63937031 12.68528622 -6.20559529 9.09492173 -2 5 C-0.680982 2.33466965 -0.680982 2.33466965 0 0 Z " fill="#300D15" transform="translate(147,89)"/>
<path d="M0 0 C1.15242188 0.00902344 2.30484375 0.01804687 3.4921875 0.02734375 C4.36101562 0.03894531 5.22984375 0.05054688 6.125 0.0625 C6.125 0.3925 6.125 0.7225 6.125 1.0625 C4.96871094 1.15337891 4.96871094 1.15337891 3.7890625 1.24609375 C2.28472656 1.37177734 2.28472656 1.37177734 0.75 1.5 C-0.74660156 1.62181641 -0.74660156 1.62181641 -2.2734375 1.74609375 C-4.85427613 1.91215626 -4.85427613 1.91215626 -6.875 3.0625 C-9.2079866 3.10272391 -11.54206666 3.10570247 -13.875 3.0625 C-13.875 3.7225 -13.875 4.3825 -13.875 5.0625 C-14.77992187 5.46082031 -14.77992187 5.46082031 -15.703125 5.8671875 C-16.50234375 6.22039063 -17.3015625 6.57359375 -18.125 6.9375 C-18.91390625 7.28554687 -19.7028125 7.63359375 -20.515625 7.9921875 C-22.66368608 8.96663905 -24.77329202 9.99236429 -26.875 11.0625 C-25.93816327 7.65789822 -25.35814799 6.34891707 -22.265625 4.515625 C-21.22921875 4.11859375 -20.1928125 3.7215625 -19.125 3.3125 C-17.58585937 2.70148437 -17.58585937 2.70148437 -16.015625 2.078125 C-10.61682882 0.33224564 -5.65574255 -0.05771166 0 0 Z " fill="#D94E0B" transform="translate(80.875,7.9375)"/>
<path d="M0 0 C-0.33 0.66 -0.66 1.32 -1 2 C-2.77490234 2.43896484 -2.77490234 2.43896484 -5.0859375 2.7109375 C-6.35195801 2.87372192 -6.35195801 2.87372192 -7.64355469 3.03979492 C-8.54493164 3.1504126 -9.44630859 3.26103027 -10.375 3.375 C-17.9953722 4.39696424 -24.94308725 5.8114408 -32 9 C-31 6 -31 6 -29.4609375 4.90234375 C-20.21562485 0.62595382 -10.08865246 -0.15560904 0 0 Z " fill="#5A0F0E" transform="translate(89,5)"/>
<path d="M0 0 C1.134375 0.020625 2.26875 0.04125 3.4375 0.0625 C2.0625 2.5625 2.0625 2.5625 0.4375 5.0625 C-0.2225 5.0625 -0.8825 5.0625 -1.5625 5.0625 C-0.5725 6.5475 -0.5725 6.5475 0.4375 8.0625 C0.4375 9.3825 0.4375 10.7025 0.4375 12.0625 C-1.4375 11.875 -1.4375 11.875 -3.5625 11.0625 C-5.21925726 8.2223447 -5.62241845 6.58978234 -5.25 3.3125 C-4.14136494 -0.3157602 -4.07776634 0.07153976 0 0 Z " fill="#00377D" transform="translate(60.5625,175.9375)"/>
<path d="M0 0 C1.79244141 0.01353516 1.79244141 0.01353516 3.62109375 0.02734375 C6.53927834 0.05068923 9.45702776 0.08343344 12.375 0.125 C12.375 0.455 12.375 0.785 12.375 1.125 C3.96 1.62 3.96 1.62 -4.625 2.125 C-5.285 3.445 -5.945 4.765 -6.625 6.125 C-6.955 5.465 -7.285 4.805 -7.625 4.125 C-10.33946979 3.81258545 -12.96409361 3.61163408 -15.6875 3.5 C-16.82541992 3.44199219 -16.82541992 3.44199219 -17.98632812 3.3828125 C-19.86547195 3.28826438 -21.74520336 3.20553244 -23.625 3.125 C-23.625 2.795 -23.625 2.465 -23.625 2.125 C-15.69756931 0.11538839 -8.14861952 -0.11809594 0 0 Z " fill="#264576" transform="translate(102.625,152.875)"/>
<path d="M0 0 C0.33 0 0.66 0 1 0 C1.12117188 0.97839844 1.24234375 1.95679687 1.3671875 2.96484375 C2.43920406 11.59655571 2.43920406 11.59655571 4.125 20.125 C4.83734936 23.27969004 5.20646485 25.79979477 5 29 C-0.40846745 20.88729882 -0.95286416 11.53322437 -1 2 C-0.67 1.34 -0.34 0.68 0 0 Z " fill="#F39D0A" transform="translate(22,66)"/>
<path d="M0 0 C1.65 0 3.3 0 5 0 C5.91058531 3.07322544 6.08886184 5.80097361 6 9 C3.03 9 0.06 9 -3 9 C-2.34 8.01 -1.68 7.02 -1 6 C-0.60986284 4.0103005 -0.26797351 2.00980131 0 0 Z " fill="#04457E" transform="translate(90,156)"/>
<path d="M0 0 C0.33 0 0.66 0 1 0 C1 3.3 1 6.6 1 10 C-3.62 10 -8.24 10 -13 10 C-12.01 9.67 -11.02 9.34 -10 9 C-10 7.35 -10 5.7 -10 4 C-9.34 4 -8.68 4 -8 4 C-8 4.99 -8 5.98 -8 7 C-4.535 6.505 -4.535 6.505 -1 6 C-0.67 4.02 -0.34 2.04 0 0 Z " fill="#F9550D" transform="translate(114,143)"/>
<path d="M0 0 C3.63 0.33 7.26 0.66 11 1 C11.99 3.31 12.98 5.62 14 8 C10.13375035 8 8.53339391 6.65502846 5.3125 4.5625 C4.31863281 3.92441406 3.32476562 3.28632813 2.30078125 2.62890625 C1.54152344 2.09136719 0.78226562 1.55382812 0 1 C0 0.67 0 0.34 0 0 Z " fill="#61110D" transform="translate(110,13)"/>
<path d="M0 0 C1.30889982 3.92669945 0.26061271 6.71748259 -0.8125 10.5625 C-0.99103516 11.24763672 -1.16957031 11.93277344 -1.35351562 12.63867188 C-2.74032387 17.74032387 -2.74032387 17.74032387 -5 20 C-5.44158619 11.87154306 -4.57292936 6.85939403 0 0 Z " fill="#251221" transform="translate(120,133)"/>
<path d="M0 0 C0.33 0 0.66 0 1 0 C1.33328851 8.56674915 1.11584616 15.95073076 -2 24 C-2.66 24 -3.32 24 -4 24 C-3.86722656 23.39414063 -3.73445312 22.78828125 -3.59765625 22.1640625 C-2.47845378 16.85397781 -1.67784744 11.63670059 -1.24609375 6.2265625 C-1.00817368 4.0739523 -0.57598969 2.08498746 0 0 Z " fill="#FB650D" transform="translate(145,65)"/>
<path d="M0 0 C0.763125 0.0825 1.52625 0.165 2.3125 0.25 C1.9825 0.91 1.6525 1.57 1.3125 2.25 C-0.75 2.875 -0.75 2.875 -2.6875 3.25 C-2.63186349 5.08468832 -2.63186349 5.08468832 -1.6875 7.25 C-0.676875 8.054375 0.33375 8.85875 1.375 9.6875 C4.3125 12.25 4.3125 12.25 4.6875 15.0625 C4.56375 15.784375 4.44 16.50625 4.3125 17.25 C3.6525 17.25 2.9925 17.25 2.3125 17.25 C0.8518715 14.60261084 0.3125 13.35551666 0.3125 10.25 C-0.30625 10.188125 -0.925 10.12625 -1.5625 10.0625 C-3.6875 9.25 -3.6875 9.25 -5.125 6.9375 C-5.6875 4.25 -5.6875 4.25 -4.625 1.9375 C-2.6875 0.25 -2.6875 0.25 0 0 Z " fill="#ECB80C" transform="translate(77.6875,50.75)"/>
<path d="M0 0 C3.63 0.33 7.26 0.66 11 1 C11 1.66 11 2.32 11 3 C13.65228812 4.07525194 16.28368454 5.09456151 19 6 C19 6.66 19 7.32 19 8 C12.84765625 7.4140625 12.84765625 7.4140625 11 7 C10.67 6.34 10.34 5.68 10 5 C7.65961814 3.86897474 7.65961814 3.86897474 4.9375 2.875 C4.01839844 2.52179687 3.09929687 2.16859375 2.15234375 1.8046875 C1.44207031 1.53914062 0.73179688 1.27359375 0 1 C0 0.67 0 0.34 0 0 Z " fill="#4D0B0E" transform="translate(99,6)"/>
<path d="M0 0 C2.62994337 1.31497169 2.92315481 2.27199218 4 5 C4.38749213 7.32495277 4.72982839 9.65851268 5 12 C7.97 12.495 7.97 12.495 11 13 C11 13.33 11 13.66 11 14 C8.03 14 5.06 14 2 14 C2 12.35 2 10.7 2 9 C1.34 9 0.68 9 0 9 C0 6.03 0 3.06 0 0 Z " fill="#9888DF" transform="translate(51,139)"/>
<path d="M0 0 C4.10865147 2.88716049 5.9619234 5.43859046 8 10 C8.99 11.485 8.99 11.485 10 13 C10 13.99 10 14.98 10 16 C8.109375 15.78515625 8.109375 15.78515625 6 15 C4.953125 12.93359375 4.953125 12.93359375 4.25 10.4375 C4.00765625 9.61121094 3.7653125 8.78492187 3.515625 7.93359375 C3.34546875 7.29550781 3.1753125 6.65742187 3 6 C2.34 6 1.68 6 1 6 C0.67 4.02 0.34 2.04 0 0 Z " fill="#361418" transform="translate(21,90)"/>
<path d="M0 0 C2.70408823 1.02568864 3.97795525 1.97263411 5.8125 4.25 C7.26716699 7.61870251 6.89577032 9.49835238 6 13 C2.10014426 8.84015388 1.10830253 5.44915409 0 0 Z " fill="#074485" transform="translate(46,126)"/>
<path d="M0 0 C1.32 0.66 2.64 1.32 4 2 C4 2.33 4 2.66 4 3 C2.35 3 0.7 3 -1 3 C-1.268125 3.804375 -1.53625 4.60875 -1.8125 5.4375 C-2.204375 6.283125 -2.59625 7.12875 -3 8 C-3.99 8.33 -4.98 8.66 -6 9 C-6.99 10.485 -6.99 10.485 -8 12 C-8.66 12 -9.32 12 -10 12 C-7.87880087 6.98625661 -4.506805 3.00453667 0 0 Z " fill="#EF9D0C" transform="translate(99,82)"/>
<path d="M0 0 C4.99783437 -0.36020428 7.98018872 0.65610065 12.375 3 C13.43460938 3.556875 14.49421875 4.11375 15.5859375 4.6875 C16.38257812 5.120625 17.17921875 5.55375 18 6 C18 6.33 18 6.66 18 7 C15.625 7.125 15.625 7.125 13 7 C12.34 6.34 11.68 5.68 11 5 C9.14516546 4.39286197 7.26578615 3.85868948 5.375 3.375 C4.37210937 3.11460938 3.36921875 2.85421875 2.3359375 2.5859375 C1.56507812 2.39257812 0.79421875 2.19921875 0 2 C0 1.34 0 0.68 0 0 Z " fill="#EF560B" transform="translate(97,10)"/>
<path d="M0 0 C0.33 0.66 0.66 1.32 1 2 C0.01 3.485 0.01 3.485 -1 5 C-1.66 5 -2.32 5 -3 5 C-3.103125 5.763125 -3.20625 6.52625 -3.3125 7.3125 C-4.05067115 10.19807812 -4.62140803 11.26179817 -7 13 C-7.99 13 -8.98 13 -10 13 C-8.5 10 -8.5 10 -7 7 C-6.34 7 -5.68 7 -5 7 C-4.731875 6.401875 -4.46375 5.80375 -4.1875 5.1875 C-3.01506533 3.02775192 -1.80630718 1.64209744 0 0 Z " fill="#E75D1F" transform="translate(67,118)"/>
<path d="M0 0 C0.66 0 1.32 0 2 0 C2.4125 0.928125 2.825 1.85625 3.25 2.8125 C4.71292091 6.04476606 4.71292091 6.04476606 7.1875 7.5 C8.0846875 8.2425 8.0846875 8.2425 9 9 C9.25 12.1875 9.25 12.1875 9 15 C4.28668223 10.66884313 1.22313003 6.36027614 0 0 Z " fill="#F1890D" transform="translate(27,96)"/>
<path d="M0 0 C0.33 1.32 0.66 2.64 1 4 C0.195625 4.5775 -0.60875 5.155 -1.4375 5.75 C-4.1432277 7.68681648 -4.1432277 7.68681648 -4.5 10.125 C-4.665 10.74375 -4.83 11.3625 -5 12 C-7.5625 13.25 -7.5625 13.25 -10 14 C-9.34 12.35 -8.68 10.7 -8 9 C-7.34 9 -6.68 9 -6 9 C-5.7525 8.2575 -5.505 7.515 -5.25 6.75 C-3.90852699 3.79875938 -2.39094474 2.15185026 0 0 Z " fill="#EB8E0F" transform="translate(87,94)"/>
<path d="M0 0 C0.33 0 0.66 0 1 0 C1.22211116 1.93596892 1.42722992 3.87389328 1.625 5.8125 C1.74101563 6.89144531 1.85703125 7.97039062 1.9765625 9.08203125 C2 12 2 12 0 15 C-0.38499891 16.65549531 -0.72793135 18.3222433 -1 20 C-1.66 20 -2.32 20 -3 20 C-2.86722656 19.31035156 -2.73445313 18.62070313 -2.59765625 17.91015625 C-1.47696987 11.94679588 -0.59395227 6.03851471 0 0 Z " fill="#E88F1A" transform="translate(118,69)"/>
<path d="M0 0 C0.66 0.66 1.32 1.32 2 2 C1.65684171 6.11789952 0.08709655 9.46799045 -2 13 C-2.99 13.33 -3.98 13.66 -5 14 C-4.01 10.7 -3.02 7.4 -2 4 C-1.34 4 -0.68 4 0 4 C0 2.68 0 1.36 0 0 Z " fill="#54130E" transform="translate(146,84)"/>
<path d="M0 0 C0.66 0.66 1.32 1.32 2 2 C1.67 2.66 1.34 3.32 1 4 C4.3 4 7.6 4 11 4 C11 4.66 11 5.32 11 6 C6.05 6 1.1 6 -4 6 C-3.67 5.34 -3.34 4.68 -3 4 C-2.34 4 -1.68 4 -1 4 C-0.67 2.68 -0.34 1.36 0 0 Z " fill="#FBAF0B" transform="translate(79,147)"/>
<path d="M0 0 C0.33 0 0.66 0 1 0 C1.18175781 1.051875 1.18175781 1.051875 1.3671875 2.125 C2.37304502 7.81970105 3.52311628 13.40894019 5 19 C2.51953125 17.484375 2.51953125 17.484375 0 15 C-0.37398847 12.18760674 -0.48293015 10.02407845 -0.3125 7.25 C-0.27866211 6.20392578 -0.27866211 6.20392578 -0.24414062 5.13671875 C-0.18547048 3.42355065 -0.09579256 1.71149377 0 0 Z " fill="#6C210F" transform="translate(21,75)"/>
<path d="M0 0 C1.485 0.99 1.485 0.99 3 2 C3 2.99 3 3.98 3 5 C4.32 5.66 5.64 6.32 7 7 C7 8.65 7 10.3 7 12 C0.75324675 5.92207792 0.75324675 5.92207792 -1 3 C-0.67 2.01 -0.34 1.02 0 0 Z " fill="#3E0C0E" transform="translate(133,28)"/>
<path d="M0 0 C1.32 0 2.64 0 4 0 C4 3.3 4 6.6 4 10 C3.01 10 2.02 10 1 10 C0.63720544 8.71073008 0.28503302 7.41846728 -0.0625 6.125 C-0.35833984 5.04605469 -0.35833984 5.04605469 -0.66015625 3.9453125 C-1 2 -1 2 0 0 Z " fill="#FC542D" transform="translate(63,142)"/>
<path d="M0 0 C4.74170719 4.58365028 5.16749853 9.74528499 6 16 C5.01 15.67 4.02 15.34 3 15 C2.87625 13.9275 2.7525 12.855 2.625 11.75 C2.08909822 8.5345893 1.44598512 6.79557123 0 4 C0 2.68 0 1.36 0 0 Z " fill="#D45DA8" transform="translate(52,136)"/>
<path d="M0 0 C-3.57469625 3.57469625 -8.02894421 3.96917283 -12.9375 4.125 C-13.948125 4.08375 -14.95875 4.0425 -16 4 C-16 3.34 -16 2.68 -16 2 C-10.61972975 0.80911014 -5.54708616 -0.2919519 0 0 Z " fill="#F0910A" transform="translate(107,44)"/>
<path d="M0 0 C4.62 0 9.24 0 14 0 C12.60878255 2.7824349 10.69835788 3.55210065 8 5 C7.34 5 6.68 5 6 5 C6 3.68 6 2.36 6 1 C4.02 1 2.04 1 0 1 C0 0.67 0 0.34 0 0 Z " fill="#002549" transform="translate(97,188)"/>
<path d="M0 0 C0.66 0.33 1.32 0.66 2 1 C1.566875 1.8353125 1.566875 1.8353125 1.125 2.6875 C-0.0413253 5.08494645 -1.0339881 7.51596939 -2 10 C-2.66 10 -3.32 10 -4 10 C-4.66 11.65 -5.32 13.3 -6 15 C-6.33 14.34 -6.66 13.68 -7 13 C-5.92325298 10.71741367 -4.80453884 8.5643566 -3.5625 6.375 C-3.22412109 5.76398438 -2.88574219 5.15296875 -2.53710938 4.5234375 C-1.69853808 3.011647 -0.85017423 1.50529601 0 0 Z " fill="#2F121C" transform="translate(125,121)"/>
<path d="M0 0 C0.66 0 1.32 0 2 0 C0.33248852 3.94139078 -2.22710649 6.7892812 -5 10 C-5.99 9.34 -6.98 8.68 -8 8 C-8 7.34 -8 6.68 -8 6 C-6.68 6 -5.36 6 -4 6 C-4 5.34 -4 4.68 -4 4 C-3.34 4 -2.68 4 -2 4 C-1.34 2.68 -0.68 1.36 0 0 Z " fill="#EC5315" transform="translate(49,107)"/>
<path d="M0 0 C1.32 0 2.64 0 4 0 C3.35334574 3.491933 2.13457576 6.15389899 0 9 C-1.32 9 -2.64 9 -4 9 C-4 8.34 -4 7.68 -4 7 C-2.68 6.67 -1.36 6.34 0 6 C0 4.02 0 2.04 0 0 Z " fill="#F1A50A" transform="translate(69,79)"/>
<path d="M0 0 C2.31 0 4.62 0 7 0 C4.525 3.465 4.525 3.465 2 7 C1.34 6.67 0.68 6.34 0 6 C0 4.02 0 2.04 0 0 Z " fill="#002C5D" transform="translate(64,192)"/>
<path d="M0 0 C-2.82553984 4.23830976 -5.12180888 3.97715348 -10 5 C-10 3.68 -10 2.36 -10 1 C-6.78548731 -0.60725635 -3.56387464 -0.05748185 0 0 Z " fill="#074A85" transform="translate(89,156)"/>
<path d="M0 0 C0.33 0 0.66 0 1 0 C1.33 4.29 1.66 8.58 2 13 C-2 8 -2 8 -1.8125 4.25 C-1 1 -1 1 0 0 Z " fill="#E75077" transform="translate(55,131)"/>
<path d="M0 0 C0.33 0 0.66 0 1 0 C1.3690205 10.55808656 1.3690205 10.55808656 -1 15 C-1.66 15 -2.32 15 -3 15 C-2.01 10.05 -1.02 5.1 0 0 Z " fill="#E48320" transform="translate(122,51)"/>
<path d="M0 0 C0.309375 0.639375 0.61875 1.27875 0.9375 1.9375 C1.8345163 3.93610821 1.8345163 3.93610821 3 5 C3.07205511 6.68608966 3.08386068 8.37500659 3.0625 10.0625 C3.05347656 10.98160156 3.04445313 11.90070313 3.03515625 12.84765625 C3.02355469 13.55792969 3.01195312 14.26820312 3 15 C-0.2605096 11.7394904 -0.05467405 8.10916255 -0.0625 3.6875 C-0.041875 2.470625 -0.02125 1.25375 0 0 Z " fill="#FC580D" transform="translate(25,72)"/>
<path d="M0 0 C0.556875 0.391875 1.11375 0.78375 1.6875 1.1875 C2.3475 1.5175 3.0075 1.8475 3.6875 2.1875 C3.6875 2.8475 3.6875 3.5075 3.6875 4.1875 C-0.6025 3.5275 -4.8925 2.8675 -9.3125 2.1875 C-9.3125 1.8575 -9.3125 1.5275 -9.3125 1.1875 C-2.91905738 -1.02561475 -2.91905738 -1.02561475 0 0 Z " fill="#75130C" transform="translate(91.3125,5.8125)"/>
<path d="M0 0 C1.98 0.495 1.98 0.495 4 1 C3.34 1 2.68 1 2 1 C2.020625 1.804375 2.04125 2.60875 2.0625 3.4375 C2 6 2 6 1 7 C0.95936168 8.66617115 0.957279 10.33388095 1 12 C0.34 11.67 -0.32 11.34 -1 11 C-1.14285714 3.57142857 -1.14285714 3.57142857 0 0 Z " fill="#003270" transform="translate(56,153)"/>
<path d="M0 0 C-0.33 2.31 -0.66 4.62 -1 7 C-2.5 5.625 -2.5 5.625 -4 4 C-4 3.34 -4 2.68 -4 2 C-4.66 2 -5.32 2 -6 2 C-6 1.34 -6 0.68 -6 0 C-3.50907189 -1.24546405 -2.58919267 -0.7767578 0 0 Z " fill="#FB4B29" transform="translate(64,131)"/>
<path d="M0 0 C2.475 0.495 2.475 0.495 5 1 C5 2.32 5 3.64 5 5 C5.66 5.33 6.32 5.66 7 6 C7.33 6.99 7.66 7.98 8 9 C7.01 9 6.02 9 5 9 C3.35 6.03 1.7 3.06 0 0 Z " fill="#103E6E" transform="translate(40,117)"/>
<path d="M0 0 C0.66 0 1.32 0 2 0 C3.25664978 2.90600261 4 4.79604584 4 8 C2.68 8.33 1.36 8.66 0 9 C0 6.03 0 3.06 0 0 Z " fill="#EA5A0A" transform="translate(144,57)"/>
<path d="M0 0 C0.99 0.33 1.98 0.66 3 1 C0.69 3.64 -1.62 6.28 -4 9 C-4.33 8.01 -4.66 7.02 -5 6 C-3.59554165 3.7363436 -1.8032087 1.9791315 0 0 Z " fill="#E1860C" transform="translate(65,88)"/>
<path d="M0 0 C2.31 0.33 4.62 0.66 7 1 C7.33 1.99 7.66 2.98 8 4 C5.69 4.33 3.38 4.66 1 5 C0.67 3.35 0.34 1.7 0 0 Z " fill="#003668" transform="translate(95,160)"/>
<path d="M0 0 C2.96404505 2.80804268 5.44499019 5.18315774 7 9 C3.76939581 8.44299928 1.9341777 7.70784878 0 5 C-0.1875 2.3125 -0.1875 2.3125 0 0 Z " fill="#1D1225" transform="translate(36,113)"/>
<path d="M0 0 C0.33 0.66 0.66 1.32 1 2 C1.66 2 2.32 2 3 2 C4.60725635 5.21451269 4.05748185 8.43612536 4 12 C1.21366885 7.82050327 0 5.06624674 0 0 Z " fill="#4A120E" transform="translate(144,50)"/>
<path d="M0 0 C1.65 0.33 3.3 0.66 5 1 C4.67 1.99 4.34 2.98 4 4 C0.37 4 -3.26 4 -7 4 C-7 3.67 -7 3.34 -7 3 C-5.5459375 2.814375 -5.5459375 2.814375 -4.0625 2.625 C-2.5465625 2.315625 -2.5465625 2.315625 -1 2 C-0.67 1.34 -0.34 0.68 0 0 Z M-9 4 C-7 5 -7 5 -7 5 Z " fill="#022B50" transform="translate(115,43)"/>
<path d="M0 0 C1.26706235 3.80118706 0.57172296 5.3850372 -1 9 C-1.99 9.33 -2.98 9.66 -4 10 C-3.5205537 5.78087253 -2.83374881 3.20336822 0 0 Z " fill="#160C23" transform="translate(120,133)"/>
<path d="M0 0 C-0.33 0.66 -0.66 1.32 -1 2 C-3.72265625 2.4140625 -3.72265625 2.4140625 -7.0625 2.625 C-8.16722656 2.69976562 -9.27195312 2.77453125 -10.41015625 2.8515625 C-11.26480469 2.90054688 -12.11945313 2.94953125 -13 3 C-8.16353702 -0.22430866 -5.73060016 -0.09242903 0 0 Z " fill="#1A345D" transform="translate(115,44)"/>
<path d="M0 0 C0.99 0.33 1.98 0.66 3 1 C2.49396008 3.16874252 2.00016187 4.99967627 1 7 C0.34 7 -0.32 7 -1 7 C-1.625 5.1875 -1.625 5.1875 -2 3 C-1.34 2.01 -0.68 1.02 0 0 Z " fill="#0D3661" transform="translate(80,96)"/>
<path d="M0 0 C0.33 0 0.66 0 1 0 C1.22162329 1.62324086 1.42689803 3.248721 1.625 4.875 C1.74101562 5.77992187 1.85703125 6.68484375 1.9765625 7.6171875 C1.98429687 8.40351562 1.99203125 9.18984375 2 10 C1.34 10.66 0.68 11.32 0 12 C-1.1671568 8.49852959 -1.13357453 5.67329964 -1 2 C-0.67 1.34 -0.34 0.68 0 0 Z " fill="#FAAB0A" transform="translate(22,66)"/>
<path d="M0 0 C3.14191424 1.53604696 6.08596738 3.05731159 9 5 C9 5.66 9 6.32 9 7 C8.01 7 7.02 7 6 7 C5.67 6.34 5.34 5.68 5 5 C2.97536745 4.34786708 2.97536745 4.34786708 1 4 C0.67 2.68 0.34 1.36 0 0 Z " fill="#F0960D" transform="translate(104,85)"/>
<path d="M0 0 C0.66 0 1.32 0 2 0 C2.6875 2.8125 2.6875 2.8125 3 6 C2.01 6.99 1.02 7.98 0 9 C0 6.03 0 3.06 0 0 Z " fill="#FB960C" transform="translate(119,66)"/>
<path d="M0 0 C0 0.33 0 0.66 0 1 C-1.65 1 -3.3 1 -5 1 C-5 1.66 -5 2.32 -5 3 C-6.65 3.66 -8.3 4.32 -10 5 C-10 4.34 -10 3.68 -10 3 C-10.66 2.67 -11.32 2.34 -12 2 C-7.82262526 0.40861915 -4.46839215 -0.21278058 0 0 Z " fill="#EC550B" transform="translate(72,10)"/>
<path d="M0 0 C0.99 0.33 1.98 0.66 3 1 C3.33 2.65 3.66 4.3 4 6 C2.02 5.01 0.04 4.02 -2 3 C-2 2.34 -2 1.68 -2 1 C-1.34 0.67 -0.68 0.34 0 0 Z " fill="#1D3A5B" transform="translate(102,80)"/>
<path d="M0 0 C2 1.1875 2 1.1875 4 3 C4.25 5.6875 4.25 5.6875 4 8 C3.34 8 2.68 8 2 8 C0.23537317 4.91190305 0 3.76687864 0 0 Z " fill="#F7C208" transform="translate(78,60)"/>
<path d="M0 0 C0.66 0 1.32 0 2 0 C1.67 1.65 1.34 3.3 1 5 C-0.32 5.33 -1.64 5.66 -3 6 C-1.125 1.125 -1.125 1.125 0 0 Z " fill="#EB7C10" transform="translate(74,109)"/>
<path d="M0 0 C0 1.65 0 3.3 0 5 C-0.99 5.495 -0.99 5.495 -2 6 C-3.32 4.68 -4.64 3.36 -6 2 C-1.125 0 -1.125 0 0 0 Z " fill="#153564" transform="translate(115,85)"/>
<path d="M0 0 C0.33 0.66 0.66 1.32 1 2 C0.0625 4.625 0.0625 4.625 -1 7 C-2.32 6.67 -3.64 6.34 -5 6 C-3.35 4.02 -1.7 2.04 0 0 Z " fill="#132851" transform="translate(49,110)"/>
<path d="M0 0 C-1.32 0.99 -2.64 1.98 -4 3 C-5.32 2.34 -6.64 1.68 -8 1 C-4.93251126 -0.86240388 -3.40254489 -1.2151946 0 0 Z " fill="#1F355A" transform="translate(94,49)"/>
<path d="M0 0 C0.99 0 1.98 0 3 0 C2.45276317 3.37462715 1.9451 5.08235 0 8 C0 5.36 0 2.72 0 0 Z " fill="#003A8F" transform="translate(53,153)"/>
<path d="M0 0 C-0.66 2.31 -1.32 4.62 -2 7 C-2.66 6.67 -3.32 6.34 -4 6 C-4 4.35 -4 2.7 -4 1 C-2 0 -2 0 0 0 Z " fill="#F7670D" transform="translate(133,107)"/>
<path d="M0 0 C1.98 0.495 1.98 0.495 4 1 C3 4 3 4 0.9375 5.1875 C0.298125 5.455625 -0.34125 5.72375 -1 6 C-0.67 4.02 -0.34 2.04 0 0 Z " fill="#153962" transform="translate(95,80)"/>
<path d="M0 0 C1.60080151 4.00200378 0.29279692 7.04556236 -1 11 C-1.33 11 -1.66 11 -2 11 C-2.25 3.375 -2.25 3.375 0 0 Z " fill="#D96809" transform="translate(147,77)"/>
<path d="M0 0 C0.66 0 1.32 0 2 0 C2.33 2.31 2.66 4.62 3 7 C1.68 6.01 0.36 5.02 -1 4 C-0.67 2.68 -0.34 1.36 0 0 Z " fill="#393E53" transform="translate(75,53)"/>
</svg>
