<?xml version="1.0" encoding="UTF-8"?>
<svg version="1.1" xmlns="http://www.w3.org/2000/svg" width="1024" height="1024">
<path d="M0 0 C337.92 0 675.84 0 1024 0 C1024 337.92 1024 675.84 1024 1024 C686.08 1024 348.16 1024 0 1024 C0 686.08 0 348.16 0 0 Z " fill="#FAFAFA" transform="translate(0,0)"/>
<path d="M0 0 C1.83764203 0.51897175 3.67658066 1.0333763 5.5168457 1.54296875 C7.40378208 2.08899221 9.29007218 2.63725294 11.17578125 3.1875 C12.20794769 3.48657257 13.24011414 3.78564514 14.30355835 4.09378052 C16.50384778 4.73141407 18.703875 5.36995302 20.90365601 6.00933838 C26.70776719 7.69610087 32.51394963 9.37569493 38.3203125 11.0546875 C39.48215561 11.39071991 40.64399872 11.72675232 41.84104919 12.07296753 C53.96999168 15.57655891 66.11936215 19.00626447 78.27661133 22.41015625 C85.69979431 24.49006556 93.11637406 26.59197375 100.51953125 28.7421875 C101.25539963 28.95352325 101.99126801 29.16485901 102.74943542 29.38259888 C107.88415967 30.88415967 107.88415967 30.88415967 109 32 C109.11134015 34.94349768 109.157405 37.86373906 109.16113281 40.80810547 C109.16609772 41.73358185 109.17106262 42.65905823 109.17617798 43.61257935 C109.19086483 46.69745619 109.19761877 49.78228131 109.203125 52.8671875 C109.20887909 55.01742555 109.21463679 57.16766358 109.22039795 59.31790161 C109.23093181 63.84588866 109.23675622 68.37385788 109.24023438 72.90185547 C109.24566925 78.65416829 109.26957806 84.40623836 109.29820633 90.15847588 C109.31701962 94.61313511 109.32204853 99.06773866 109.32357025 103.52243423 C109.32656459 105.63913397 109.33448167 107.75583351 109.34775543 109.87249374 C109.61432806 155.72304219 93.65478391 193.73981227 61.80004883 226.43432617 C55.54418371 232.7444942 49.07453951 238.60805367 42 244 C41.17145508 244.63518555 41.17145508 244.63518555 40.32617188 245.28320312 C27.93040643 254.73990673 14.88169939 262.90266832 1.3125 270.5625 C0.18074341 271.20747437 0.18074341 271.20747437 -0.97387695 271.86547852 C-8.46039658 276.02240255 -8.46039658 276.02240255 -12 276 C-14.77123171 274.84457756 -17.21531532 273.65380066 -19.8125 272.1875 C-20.55733643 271.77878662 -21.30217285 271.37007324 -22.06958008 270.94897461 C-42.60682583 259.54132032 -61.84278165 246.0848922 -79 230 C-79.74056641 229.31043213 -79.74056641 229.31043213 -80.49609375 228.60693359 C-106.90467783 203.82007366 -128.67259552 167.74790798 -130.08998299 130.64448547 C-130.12221268 128.00530187 -130.12378388 125.36787714 -130.11352539 122.72851562 C-130.11367142 121.73248322 -130.11381744 120.73645081 -130.1139679 119.7102356 C-130.11327534 116.44221767 -130.10551386 113.17425788 -130.09765625 109.90625 C-130.09578974 107.630819 -130.09436693 105.3553876 -130.09336853 103.07995605 C-130.08956174 97.10907876 -130.07974723 91.13822603 -130.06866455 85.1673584 C-130.05841082 79.06730481 -130.05386244 72.96724723 -130.04882812 66.8671875 C-130.03812325 54.91144758 -130.021069 42.95572584 -130 31 C-126.13551605 29.87465846 -122.27089464 28.74978956 -118.40625 27.625 C-117.18094574 27.26826706 -115.95564148 26.91153412 -114.69320679 26.54399109 C-107.82629797 24.54549657 -100.95771178 22.55297493 -94.08642578 20.56958008 C-91.21638928 19.74068103 -88.34645119 18.91144193 -85.4765625 18.08203125 C-84.75348026 17.87313578 -84.03039803 17.6642403 -83.28540421 17.44901466 C-74.09433531 14.79186239 -64.91923382 12.08782445 -55.76080322 9.32028198 C-50.67906763 7.78523561 -45.58934096 6.27742543 -40.49926758 4.77026367 C-38.0977608 4.05280442 -35.69939756 3.32473119 -33.30444336 2.58569336 C-29.95792222 1.55427802 -26.60220988 0.56060644 -23.2421875 -0.42578125 C-22.27590424 -0.73413406 -21.30962097 -1.04248688 -20.3140564 -1.36018372 C-12.75307184 -3.51698001 -7.3845583 -2.37713396 0 0 Z " fill="#F9FAF9" transform="translate(198,364)"/>
<path d="M0 0 C0.73075745 -0.00511093 1.46151489 -0.01022186 2.2144165 -0.01548767 C4.62105589 -0.02934451 7.02740759 -0.02842971 9.43408203 -0.02612305 C11.1141063 -0.03001246 12.79412959 -0.03434764 14.47415161 -0.03910828 C17.99289133 -0.04656233 21.5115307 -0.04628538 25.03027344 -0.04101562 C29.52818486 -0.03522563 34.02568387 -0.05214443 38.52352715 -0.0753603 C41.99291363 -0.09012983 45.46220157 -0.09096491 48.93161392 -0.08785057 C50.58932435 -0.08836228 52.24704051 -0.09357175 53.90472031 -0.10366249 C56.22841518 -0.1160708 58.55131676 -0.10920933 60.875 -0.09765625 C62.19450653 -0.09828568 63.51401306 -0.0989151 64.87350464 -0.0995636 C70.92948436 0.51404063 76.16930468 2.94777987 80.73095703 6.9934082 C84.27167922 11.39294386 86.49012471 16.59890571 88.86767578 21.69262695 C90.4579176 25.26779702 90.4579176 25.26779702 92.56689453 28.2746582 C92.56689453 29.2646582 92.56689453 30.2546582 92.56689453 31.2746582 C93.88059653 30.6312734 95.19282351 29.98487605 96.50439453 29.3371582 C97.23529297 28.97750977 97.96619141 28.61786133 98.71923828 28.24731445 C100.5293848 27.41093993 100.5293848 27.41093993 101.56689453 26.2746582 C106.4080966 25.786537 110.97406942 25.34859709 115.25439453 27.8371582 C117.09534287 31.25606226 117.10459274 33.44355846 116.56689453 37.2746582 C115.31689453 40.1496582 115.31689453 40.1496582 112.56689453 42.2746582 C109.40576801 42.7724399 106.3475687 42.96288939 103.14892578 43.03637695 C102.29685547 43.11500977 101.44478516 43.19364258 100.56689453 43.2746582 C100.23689453 43.9346582 99.90689453 44.5946582 99.56689453 45.2746582 C100.16373047 45.53762695 100.76056641 45.8005957 101.37548828 46.0715332 C103.67359301 47.33323776 104.9470235 48.5327309 106.62939453 50.5246582 C107.11537109 51.08668945 107.60134766 51.6487207 108.10205078 52.2277832 C112.79881064 58.79072232 113.03419493 64.20937761 113.03564453 72.05981445 C113.04325806 73.19366074 113.05087158 74.32750702 113.05871582 75.49571228 C113.06949778 77.88693036 113.0723777 80.27819546 113.06787109 82.66943359 C113.06689688 86.32835055 113.10858351 89.98518336 113.15283203 93.64379883 C113.1580378 95.96996634 113.16072725 98.29614112 113.16064453 100.62231445 C113.17703979 101.71512222 113.19343506 102.80792999 113.21032715 103.93385315 C113.14146353 111.49211969 113.14146353 111.49211969 110.22705078 115.46142578 C105.36412013 118.77612713 100.20080472 118.14141362 94.56689453 117.2746582 C91.31689453 115.3996582 91.31689453 115.3996582 89.56689453 112.2746582 C89.1094574 109.68663551 88.88102704 107.20619473 88.80517578 104.5793457 C88.7192986 101.99822555 88.7192986 101.99822555 86.56689453 99.2746582 C84.5239772 98.82036641 84.5239772 98.82036641 82.12585449 98.89370728 C81.19202438 98.8852478 80.25819427 98.87678833 79.29606628 98.86807251 C78.26846695 98.8741452 77.24086761 98.8802179 76.18212891 98.88647461 C75.10240311 98.88121765 74.02267731 98.87596069 72.91023254 98.87054443 C69.32689111 98.85729733 65.74399079 98.8660994 62.16064453 98.8762207 C59.67964594 98.87420133 57.19864792 98.87129104 54.71765137 98.86752319 C48.84453003 98.86252523 42.97156985 98.87305294 37.09847212 98.8889755 C32.40965831 98.9002399 27.72103336 98.89625675 23.03222656 98.88354492 C16.57842005 98.86619605 10.12479658 98.8634096 3.67097473 98.87321091 C1.20530658 98.8752178 -1.26036931 98.8727366 -3.72602844 98.86577225 C-7.16701101 98.85818695 -10.60740158 98.8697214 -14.04833984 98.88647461 C-15.07593918 98.88040192 -16.10353851 98.87432922 -17.16227722 98.86807251 C-18.09610733 98.87653198 -19.02993744 98.88499146 -19.99206543 98.89370728 C-20.80617638 98.89483835 -21.62028732 98.89596943 -22.4590683 98.89713478 C-23.11050056 99.02171751 -23.76193283 99.14630024 -24.43310547 99.2746582 C-26.8864479 102.95467185 -26.74891746 105.39016009 -26.89404297 109.7043457 C-27.63077826 113.217185 -28.79876879 114.8419727 -31.43310547 117.2746582 C-34.74560547 117.90356445 -34.74560547 117.90356445 -38.43310547 117.8371582 C-39.64998047 117.83844727 -40.86685547 117.83973633 -42.12060547 117.84106445 C-45.93656296 117.18857172 -47.09247544 116.28484345 -49.43310547 113.2746582 C-50.63614612 110.86857689 -50.58547968 109.30453465 -50.62597656 106.61645508 C-50.64203949 105.64784546 -50.65810242 104.67923584 -50.6746521 103.68127441 C-50.71923737 99.22445383 -50.76021613 94.76778303 -50.78320312 90.31079102 C-50.79970454 87.96759062 -50.82691671 85.62443933 -50.86523438 83.28149414 C-50.92034263 79.89353452 -50.94193532 76.50675732 -50.95654297 73.1184082 C-50.99054703 71.5647052 -50.99054703 71.5647052 -51.02523804 69.97961426 C-50.99984617 61.12530133 -48.40748023 54.11010637 -42.24560547 47.6496582 C-39.43310547 45.2746582 -39.43310547 45.2746582 -37.43310547 45.2746582 C-37.43310547 44.6146582 -37.43310547 43.9546582 -37.43310547 43.2746582 C-38.32513672 43.26047852 -39.21716797 43.24629883 -40.13623047 43.23168945 C-41.30669922 43.18399414 -42.47716797 43.13629883 -43.68310547 43.0871582 C-44.84326172 43.05235352 -46.00341797 43.01754883 -47.19873047 42.98168945 C-50.43310547 42.2746582 -50.43310547 42.2746582 -52.82373047 39.9465332 C-54.93949121 36.43395955 -55.01992519 34.30904378 -54.43310547 30.2746582 C-53.12060547 27.8371582 -53.12060547 27.8371582 -50.43310547 26.2746582 C-45.28626082 25.49580652 -40.28869691 25.22017523 -35.87060547 28.2746582 C-35.06623047 28.9346582 -34.26185547 29.5946582 -33.43310547 30.2746582 C-32.77310547 30.2746582 -32.11310547 30.2746582 -31.43310547 30.2746582 C-31.14177734 29.67516357 -30.85044922 29.07566895 -30.55029297 28.45800781 C-29.19658219 25.6997689 -27.81519478 22.95628012 -26.43310547 20.2121582 C-25.97548828 19.26920898 -25.51787109 18.32625977 -25.04638672 17.35473633 C-19.43632451 6.32673732 -12.72786926 0.04449624 0 0 Z " fill="#16B455" transform="translate(156.43310546875,411.725341796875)"/>
<path d="M0 0 C1.83764203 0.51897175 3.67658066 1.0333763 5.5168457 1.54296875 C7.40378208 2.08899221 9.29007218 2.63725294 11.17578125 3.1875 C12.20794769 3.48657257 13.24011414 3.78564514 14.30355835 4.09378052 C16.50384778 4.73141407 18.703875 5.36995302 20.90365601 6.00933838 C26.70776719 7.69610087 32.51394963 9.37569493 38.3203125 11.0546875 C39.48215561 11.39071991 40.64399872 11.72675232 41.84104919 12.07296753 C53.96999168 15.57655891 66.11936215 19.00626447 78.27661133 22.41015625 C85.69979431 24.49006556 93.11637406 26.59197375 100.51953125 28.7421875 C101.25539963 28.95352325 101.99126801 29.16485901 102.74943542 29.38259888 C107.88415967 30.88415967 107.88415967 30.88415967 109 32 C109.11134015 34.94349768 109.157405 37.86373906 109.16113281 40.80810547 C109.16609772 41.73358185 109.17106262 42.65905823 109.17617798 43.61257935 C109.19086483 46.69745619 109.19761877 49.78228131 109.203125 52.8671875 C109.20887909 55.01742555 109.21463679 57.16766358 109.22039795 59.31790161 C109.23093181 63.84588866 109.23675622 68.37385788 109.24023438 72.90185547 C109.24566925 78.65416829 109.26957806 84.40623836 109.29820633 90.15847588 C109.31701962 94.61313511 109.32204853 99.06773866 109.32357025 103.52243423 C109.32656459 105.63913397 109.33448167 107.75583351 109.34775543 109.87249374 C109.61432806 155.72304219 93.65478391 193.73981227 61.80004883 226.43432617 C55.54418371 232.7444942 49.07453951 238.60805367 42 244 C41.17145508 244.63518555 41.17145508 244.63518555 40.32617188 245.28320312 C27.93040643 254.73990673 14.88169939 262.90266832 1.3125 270.5625 C0.18074341 271.20747437 0.18074341 271.20747437 -0.97387695 271.86547852 C-8.46039658 276.02240255 -8.46039658 276.02240255 -12 276 C-14.77123171 274.84457756 -17.21531532 273.65380066 -19.8125 272.1875 C-20.55733643 271.77878662 -21.30217285 271.37007324 -22.06958008 270.94897461 C-42.60682583 259.54132032 -61.84278165 246.0848922 -79 230 C-79.74056641 229.31043213 -79.74056641 229.31043213 -80.49609375 228.60693359 C-106.90467783 203.82007366 -128.67259552 167.74790798 -130.08998299 130.64448547 C-130.12221268 128.00530187 -130.12378388 125.36787714 -130.11352539 122.72851562 C-130.11367142 121.73248322 -130.11381744 120.73645081 -130.1139679 119.7102356 C-130.11327534 116.44221767 -130.10551386 113.17425788 -130.09765625 109.90625 C-130.09578974 107.630819 -130.09436693 105.3553876 -130.09336853 103.07995605 C-130.08956174 97.10907876 -130.07974723 91.13822603 -130.06866455 85.1673584 C-130.05841082 79.06730481 -130.05386244 72.96724723 -130.04882812 66.8671875 C-130.03812325 54.91144758 -130.021069 42.95572584 -130 31 C-126.13551605 29.87465846 -122.27089464 28.74978956 -118.40625 27.625 C-117.18094574 27.26826706 -115.95564148 26.91153412 -114.69320679 26.54399109 C-107.82629797 24.54549657 -100.95771178 22.55297493 -94.08642578 20.56958008 C-91.21638928 19.74068103 -88.34645119 18.91144193 -85.4765625 18.08203125 C-84.75348026 17.87313578 -84.03039803 17.6642403 -83.28540421 17.44901466 C-74.09433531 14.79186239 -64.91923382 12.08782445 -55.76080322 9.32028198 C-50.67906763 7.78523561 -45.58934096 6.27742543 -40.49926758 4.77026367 C-38.0977608 4.05280442 -35.69939756 3.32473119 -33.30444336 2.58569336 C-29.95792222 1.55427802 -26.60220988 0.56060644 -23.2421875 -0.42578125 C-22.27590424 -0.73413406 -21.30962097 -1.04248688 -20.3140564 -1.36018372 C-12.75307184 -3.51698001 -7.3845583 -2.37713396 0 0 Z M-18.97314453 17.58544922 C-20.18447052 17.93356659 -21.39579651 18.28168396 -22.64382935 18.64035034 C-23.97352673 19.02833822 -25.30318666 19.41645451 -26.6328125 19.8046875 C-28.02525303 20.20715701 -29.41782376 20.60917631 -30.81051636 21.01077271 C-34.50438072 22.07735783 -38.19632441 23.15045219 -41.88793945 24.22479248 C-45.50611958 25.27642603 -49.12621929 26.32140448 -52.74609375 27.3671875 C-72.8496731 33.18019137 -92.92771548 39.07996791 -113 45 C-113.07028487 54.90304789 -113.12320173 64.80603404 -113.15543652 74.70928288 C-113.17092701 79.31043018 -113.19185087 83.91140379 -113.22631836 88.51245117 C-113.58787251 138.15274832 -106.44372561 176.26349413 -71 213 C-70.27554688 213.77601563 -69.55109375 214.55203125 -68.8046875 215.3515625 C-62.45343542 221.98405083 -55.31631212 227.48993965 -48 233 C-47.17870605 233.62841797 -47.17870605 233.62841797 -46.34082031 234.26953125 C-38.85989829 239.97186746 -31.03121626 244.8773998 -22.875 249.5625 C-21.50492798 250.3503186 -21.50492798 250.3503186 -20.10717773 251.15405273 C-14.84079592 254.36846671 -14.84079592 254.36846671 -9 256 C-6.67091144 255.12281193 -6.67091144 255.12281193 -4.32421875 253.640625 C-2.96937378 252.84060059 -2.96937378 252.84060059 -1.5871582 252.02441406 C-0.630271 251.43885742 0.32661621 250.85330078 1.3125 250.25 C2.29710205 249.65670898 3.2817041 249.06341797 4.29614258 248.45214844 C12.55213777 243.41194385 20.40572324 237.98520159 28 232 C28.99257812 231.21882812 29.98515625 230.43765625 31.0078125 229.6328125 C62.21489427 204.51067703 86.13718164 173.49938587 91.26834106 132.8755188 C92.22485633 123.80409132 92.12636251 114.75352989 92.09765625 105.64453125 C92.0957875 103.88905376 92.09436576 102.13357574 92.09336853 100.37809753 C92.08957932 95.79314697 92.0797804 91.20822889 92.06866455 86.62329102 C92.05837246 81.93050577 92.05385432 77.23771519 92.04882812 72.54492188 C92.03815435 63.36326711 92.02112196 54.18163627 92 45 C90.96771271 44.71474457 89.93542542 44.42948914 88.87185669 44.1355896 C84.99093651 43.06276408 81.11052558 41.98810623 77.23025513 40.91293335 C75.56034658 40.4504894 73.89030577 39.98852272 72.22012329 39.52706909 C63.07130437 36.9989933 53.93771834 34.44993563 44.875 31.625 C34.52614796 28.42350833 24.13013579 25.39301669 13.71954346 22.39935303 C11.79040429 21.84401012 9.86180841 21.28677626 7.93377686 20.7276001 C5.21386318 19.93936868 2.49201634 19.15820307 -0.23046875 18.37890625 C-1.05547379 18.13865219 -1.88047882 17.89839813 -2.73048401 17.65086365 C-3.49771286 17.43293655 -4.26494171 17.21500946 -5.05541992 16.99047852 C-6.05722542 16.7023806 -6.05722542 16.7023806 -7.07926941 16.40846252 C-11.40103659 15.48939561 -14.84290512 16.38897775 -18.97314453 17.58544922 Z " fill="#15B352" transform="translate(198,364)"/>
<path d="M0 0 C10.5496875 -0.12375 10.5496875 -0.12375 21.3125 -0.25 C24.607948 -0.30462402 24.607948 -0.30462402 27.9699707 -0.36035156 C49.90272488 -0.57578293 49.90272488 -0.57578293 57.20019531 5.97509766 C62.65010293 11.71793424 64.44500989 16.574462 64.24609375 24.4375 C63.70967194 30.0230985 62.22108909 34.2610237 57.9375 38 C55 40 55 40 53 40 C53 40.66 53 41.32 53 42 C54.051875 42.0928125 54.051875 42.0928125 55.125 42.1875 C59.77298062 43.50105974 62.67905494 45.97590572 65.26953125 49.9453125 C68.67435336 56.65870733 69.46428669 63.50347362 67.1171875 70.7109375 C64.23604427 77.06471693 60.48443901 81.93117204 54.05738831 84.89619446 C47.89986119 87.08855927 42.33841628 87.39592339 35.83984375 87.29296875 C34.92497192 87.28994751 34.0101001 87.28692627 33.06750488 87.28381348 C29.69071977 87.26826516 26.31409705 87.22638265 22.9375 87.1875 C11.5834375 87.0946875 11.5834375 87.0946875 0 87 C0 58.29 0 29.58 0 0 Z " fill="#101A1D" transform="translate(358,520)"/>
<path d="M0 0 C50.96363636 0 50.96363636 0 59 8 C63.36672544 13.95692026 64.82227468 19.74799416 64 27 C62.34416587 32.64243479 60.16661094 36.87284075 55 40 C54.34 40 53.68 40 53 40 C53 40.66 53 41.32 53 42 C53.721875 42.0825 54.44375 42.165 55.1875 42.25 C59.93374861 43.5156663 62.77176829 46.19723033 65.3125 50.3125 C68.3951069 57.01874277 68.17399428 65.4915841 66.33984375 72.53515625 C63.84208571 78.14700223 59.5043464 82.53828837 53.82217407 84.90840149 C47.41768465 86.90778258 41.64567698 87.40187518 34.9609375 87.29296875 C34.06673096 87.28994751 33.17252441 87.28692627 32.2512207 87.28381348 C28.95902717 87.26829613 25.66700011 87.22641443 22.375 87.1875 C11.299375 87.0946875 11.299375 87.0946875 0 87 C0 58.29 0 29.58 0 0 Z " fill="#0D171A" transform="translate(668,520)"/>
<path d="M0 0 C7.22187098 4.33796948 11.08071869 10.94305956 13.6796875 18.81640625 C15.96256402 29.2689027 15.241315 40.38187153 10.375 50 C6.41303516 55.96256095 1.47220778 60.38114431 -5.4453125 62.578125 C-13.9530757 64.22478885 -22.21370814 63.64689695 -29.625 59 C-30.285 58.34 -30.945 57.68 -31.625 57 C-31.955 66.57 -32.285 76.14 -32.625 86 C-38.235 86 -43.845 86 -49.625 86 C-49.625 57.29 -49.625 28.58 -49.625 -1 C-44.675 -1 -39.725 -1 -34.625 -1 C-33.965 0.98 -33.305 2.96 -32.625 5 C-31.738125 4.21625 -30.85125 3.4325 -29.9375 2.625 C-22.32417146 -4.10305778 -9.00156782 -4.06920189 0 0 Z " fill="#0D181B" transform="translate(735.625,422)"/>
<path d="M0 0 C5.28 0 10.56 0 16 0 C16 29.04 16 58.08 16 88 C10.72 88 5.44 88 0 88 C-0.33 86.02 -0.66 84.04 -1 82 C-1.53109375 82.42152344 -2.0621875 82.84304688 -2.609375 83.27734375 C-3.66898438 84.09912109 -3.66898438 84.09912109 -4.75 84.9375 C-5.44609375 85.48277344 -6.1421875 86.02804687 -6.859375 86.58984375 C-13.08280656 90.68958607 -22.81512693 89.83012478 -30 89 C-36.44192763 86.85269079 -40.92867889 81.76476608 -44.15625 75.8984375 C-46.50409044 71.01828344 -47.76397949 66.42847162 -48 61 C-48.07734375 59.71609375 -48.07734375 59.71609375 -48.15625 58.40625 C-48.50592155 48.03266066 -45.99271788 38.87996596 -39 31 C-30.15777868 23.80530368 -22.0161657 23.18919291 -11 24 C-6.95777552 25.20637817 -4.00757572 26.99242428 -1 30 C-0.67 20.1 -0.34 10.2 0 0 Z " fill="#0D181B" transform="translate(941,396)"/>
<path d="M0 0 C8.06469807 5.12793066 12.68431917 11.03606764 15.6796875 20.17578125 C17.41063172 29.66135559 16.80078928 39.82274906 12.0703125 48.31640625 C6.46066831 56.21371444 0.21419727 61.19721724 -9.41796875 62.99609375 C-19.68386234 64.30527458 -28.69228215 63.52641235 -37.44140625 57.62109375 C-44.27710781 52.0395457 -48.6205318 45.10459994 -49.9296875 36.31640625 C-50.7091141 25.13610671 -49.94733246 16.17733406 -42.9296875 7.06640625 C-32.25446832 -3.96764383 -13.91028985 -6.95514493 0 0 Z " fill="#0D181B" transform="translate(793.9296875,545.68359375)"/>
<path d="M0 0 C0 5.61 0 11.22 0 17 C-1.794375 16.21625 -3.58875 15.4325 -5.4375 14.625 C-15.25398444 10.57211227 -26.25729478 7.44242216 -36.625 11.375 C-39.04991148 12.92705245 -39.04991148 12.92705245 -41 15 C-41.66084853 19.09969737 -41.66084853 19.09969737 -41 23 C-35.98562391 28.57827652 -29.66247094 29.98226358 -22.625 32 C-3.28428186 37.58429186 -3.28428186 37.58429186 2 46 C5.68421746 53.4003329 5.91676523 59.73999072 3.4375 67.5625 C0.55577877 74.83733472 -3.60730156 79.10273723 -10.6875 82.375 C-24.65749127 88.08210123 -42.07969393 85.87744739 -56 81 C-56.99 80.34 -57.98 79.68 -59 79 C-59.2208564 76.04935852 -59.28060989 73.31631769 -59.1875 70.375 C-59.17396484 69.57320313 -59.16042969 68.77140625 -59.14648438 67.9453125 C-59.11109051 65.96325622 -59.05728234 63.98154449 -59 62 C-54.27273518 63.86831238 -49.60713923 65.87167612 -44.9375 67.87890625 C-37.16144431 70.84662963 -26.59402849 71.84827941 -18.75 68.6875 C-15.78610572 67.13313828 -15.78610572 67.13313828 -14 64 C-13.25026799 58.48409145 -13.25026799 58.48409145 -15.73046875 53.86328125 C-18.07455867 51.93878746 -19.82358269 51.06914856 -22.6875 50.125 C-23.6465625 49.79628906 -24.605625 49.46757812 -25.59375 49.12890625 C-26.7178125 48.75636719 -27.841875 48.38382812 -29 48 C-53.0525267 39.99207225 -53.0525267 39.99207225 -58 32 C-60.66587363 25.20202224 -60.98351866 18.35553425 -58.9375 11.375 C-54.04701046 2.85608274 -48.61255922 -1.82940675 -39.1394043 -4.53051758 C-26.1837754 -7.37357068 -12.05972064 -4.82388826 0 0 Z " fill="#0E181B" transform="translate(417,400)"/>
<path d="M0 0 C0 5.61 0 11.22 0 17 C-7.25 14.0625 -7.25 14.0625 -9.51269531 13.14086914 C-15.25681051 10.82885505 -19.67713799 9.82997241 -25.875 9.75 C-27.06867187 9.72421875 -28.26234375 9.6984375 -29.4921875 9.671875 C-33.36631856 10.03426588 -35.71253566 10.94892895 -39 13 C-41.34549674 16.51824511 -41.57991403 17.85775694 -41 22 C-35.89608039 29.75039644 -24.58565107 31.56561162 -16.1875 34 C-6.8939195 36.79480863 -0.98642313 40.56044359 3.75 49.1875 C6.41111016 55.9280043 5.55550556 63.24279839 3.0390625 69.8984375 C-0.63198802 77.32334419 -6.34520149 81.34868331 -14.0390625 84.078125 C-18.94592372 85.41907017 -23.87869272 85.42453835 -28.9375 85.4375 C-29.94643311 85.44064209 -30.95536621 85.44378418 -31.99487305 85.44702148 C-41.60230342 85.29524895 -50.37917993 83.31041004 -59 79 C-59 73.39 -59 67.78 -59 62 C-54.80970506 63.39676498 -50.86018389 64.84390164 -46.8125 66.5625 C-41.03154396 69.01304363 -36.4702626 70.20443146 -30.1875 70.25 C-29.48818359 70.270625 -28.78886719 70.29125 -28.06835938 70.3125 C-23.27877704 70.34834346 -20.03584554 69.58197592 -16 67 C-13.88787496 63.83181244 -13.66843536 61.86780748 -13.44140625 58.1328125 C-14.3209662 54.77449269 -16.43102682 53.26258793 -19 51 C-21.9484283 49.59558103 -21.9484283 49.59558103 -25.18359375 48.68359375 C-26.35857422 48.31169922 -27.53355469 47.93980469 -28.74414062 47.55664062 C-29.96294922 47.18732422 -31.18175781 46.81800781 -32.4375 46.4375 C-49.77197484 41.11301144 -49.77197484 41.11301144 -55.3125 34.4375 C-55.80363281 33.85871094 -56.29476562 33.27992188 -56.80078125 32.68359375 C-60.64657408 27.28445137 -59.46181835 19.32031393 -59 13 C-57.41263034 6.74614604 -53.35725861 2.41651587 -48 -1 C-34.56517772 -8.69753163 -13.47282247 -6.73641124 0 0 Z " fill="#0D181B" transform="translate(670,400)"/>
<path d="M0 0 C4.72182848 3.82243258 7.02175667 7.28687099 8.625 13.125 C8.85175628 15.82905991 8.99522235 18.44338181 9.0390625 21.1484375 C9.05842865 21.89461334 9.0777948 22.64078918 9.0977478 23.40957642 C9.15712065 25.77293777 9.2037578 28.13634897 9.25 30.5 C9.28821884 32.11069732 9.3272728 33.72137506 9.3671875 35.33203125 C9.46278676 39.26286016 9.546972 43.19378463 9.625 47.125 C11.935 47.785 14.245 48.445 16.625 49.125 C16.625 52.755 16.625 56.385 16.625 60.125 C11.22227298 62.28609081 6.94223907 63.32749916 1.4375 61.33203125 C-2.05684405 59.65551692 -4.7199411 57.97612479 -7.375 55.125 C-7.90609375 55.54652344 -8.4371875 55.96804688 -8.984375 56.40234375 C-10.04398437 57.22412109 -10.04398437 57.22412109 -11.125 58.0625 C-11.82109375 58.60777344 -12.5171875 59.15304687 -13.234375 59.71484375 C-18.95559852 63.48375194 -27.19191345 62.95738484 -33.69140625 61.6640625 C-39.3907705 59.7679922 -44.79535188 56.24756024 -47.55078125 50.80078125 C-49.37026188 44.89393655 -49.16181156 38.44402354 -47.1875 32.625 C-43.13436886 27.03447429 -37.74417828 24.22289608 -31.08984375 22.55078125 C-27.84007719 22.04110563 -24.72669777 21.99285733 -21.4375 22 C-20.25285156 21.99742187 -19.06820313 21.99484375 -17.84765625 21.9921875 C-14.59964257 22.1164085 -11.56296283 22.51174303 -8.375 23.125 C-8.46246284 21.68638706 -8.57065348 20.24902492 -8.6875 18.8125 C-8.74550781 18.01199219 -8.80351562 17.21148438 -8.86328125 16.38671875 C-9.46999565 13.70513375 -10.21862154 12.7896627 -12.375 11.125 C-16.09309593 9.88563469 -19.56418973 9.93415192 -23.4375 9.9375 C-24.19667725 9.93685547 -24.95585449 9.93621094 -25.73803711 9.93554688 C-31.50657402 9.98959044 -36.76823916 10.70106074 -42.375 12.125 C-42.375 7.835 -42.375 3.545 -42.375 -0.875 C-14.11162551 -7.83979195 -14.11162551 -7.83979195 0 0 Z " fill="#0E181B" transform="translate(515.375,546.875)"/>
<path d="M0 0 C0.87422607 -0.02191406 1.74845215 -0.04382813 2.64916992 -0.06640625 C10.24889259 -0.04343986 16.239845 1.95085021 22.125 6.8125 C26.48328552 12.19626446 27.7023165 16.85053537 27.76171875 23.6796875 C27.77966995 24.44805939 27.79762115 25.21643127 27.81611633 26.00808716 C27.86994958 28.44283695 27.90402692 30.8773938 27.9375 33.3125 C27.97069705 34.97138086 28.00518891 36.63023635 28.04101562 38.2890625 C28.12565991 42.33840182 28.19259857 46.38768661 28.25 50.4375 C30.56 51.0975 32.87 51.7575 35.25 52.4375 C35.25 56.3975 35.25 60.3575 35.25 64.4375 C31.0651024 66.5299488 25.8060379 65.86863402 21.25 65.4375 C17.17207767 64.00241235 14.22657915 61.52007009 11.25 58.4375 C10.77949219 58.85902344 10.30898438 59.28054688 9.82421875 59.71484375 C9.20160156 60.26269531 8.57898438 60.81054688 7.9375 61.375 C7.32261719 61.92027344 6.70773437 62.46554687 6.07421875 63.02734375 C0.74552842 67.14652407 -7.3607549 65.9022914 -13.75 65.4375 C-20.17444426 63.87600313 -24.14004453 60.90712951 -27.75 55.4375 C-30.50860554 49.52620242 -30.74636864 43.31589828 -28.625 37.1875 C-24.61562694 31.30708617 -19.63079381 28.14398132 -12.75 26.4375 C-8.73941427 26.09627016 -4.77119203 26.15186077 -0.75 26.25 C0.31089844 26.26353516 1.37179687 26.27707031 2.46484375 26.29101562 C5.06043687 26.32609121 7.65494067 26.37524156 10.25 26.4375 C10.12118602 20.58107496 10.12118602 20.58107496 7.79296875 15.39453125 C3.75232481 13.8738588 -0.15944577 14.04664736 -4.4375 14.125 C-5.29794922 14.12177734 -6.15839844 14.11855469 -7.04492188 14.11523438 C-12.88114115 14.16361298 -18.09484508 14.9993603 -23.75 16.4375 C-23.75 12.1475 -23.75 7.8575 -23.75 3.4375 C-15.67688118 1.1031042 -8.3734934 0.09465752 0 0 Z " fill="#0E181B" transform="translate(459.75,419.5625)"/>
<path d="M0 0 C8.39934675 5.11946602 11.75009405 11.57486288 14.3125 20.9375 C14.3125 25.5575 14.3125 30.1775 14.3125 34.9375 C0.4525 34.9375 -13.4075 34.9375 -27.6875 34.9375 C-24.87783219 43.02895962 -24.87783219 43.02895962 -19.03125 48.01953125 C-15.75243383 49.30373425 -12.59527219 49.27609227 -9.125 49.25 C-8.41988281 49.24871094 -7.71476563 49.24742187 -6.98828125 49.24609375 C-0.84785388 49.13444962 4.4725751 47.88414163 10.3125 45.9375 C10.3125 50.5575 10.3125 55.1775 10.3125 59.9375 C-1.39283535 64.06879483 -15.69028417 65.38173035 -27.5 60.875 C-35.37557503 56.92055048 -40.65872555 51.24220413 -43.6875 42.9375 C-46.08150583 33.76315551 -46.19956838 21.70753206 -42.01171875 13.08203125 C-33.32431861 -0.9869442 -15.52602959 -7.24073246 0 0 Z " fill="#0C1719" transform="translate(870.6875,422.0625)"/>
<path d="M0 0 C5.61 0 11.22 0 17 0 C17.33 16.17 17.66 32.34 18 49 C26.83402474 38.366757 26.83402474 38.366757 34.625 27 C36.60468814 24.41516701 37.95337348 23.19305795 41.18652344 22.59667969 C46.82853212 22.15361285 52.37340084 22.48952225 58 23 C58 23.66 58 24.32 58 25 C57.34 25 56.68 25 56 25 C55.76539063 25.55429687 55.53078125 26.10859375 55.2890625 26.6796875 C53.67545708 29.58417725 51.65276205 31.70620005 49.375 34.125 C45.18184206 38.64024108 41.32204254 43.28673494 37.59375 48.19921875 C36.80484375 49.09060547 36.80484375 49.09060547 36 50 C35.34 50 34.68 50 34 50 C34.36649658 50.52207031 34.73299316 51.04414062 35.1105957 51.58203125 C41.55602743 60.7670982 47.99587154 69.95621134 54.375 79.1875 C54.84462158 79.86361328 55.31424316 80.53972656 55.7980957 81.23632812 C59 85.88349008 59 85.88349008 59 87 C52.56453654 88.58943938 46.25179672 89.75202537 40 87 C32.82578548 80.23632513 27.37324871 70.76006576 23 62 C23 61.34 23 60.68 23 60 C20.31052703 61.21575118 20.31052703 61.21575118 18 64 C17.2052296 67.90257556 17.20917091 71.77700061 17.1875 75.75 C17.16236328 76.82894531 17.13722656 77.90789062 17.11132812 79.01953125 C17.05248378 81.67929547 17.02337335 84.3396876 17 87 C11.39 87 5.78 87 0 87 C0 58.29 0 29.58 0 0 Z " fill="#0C1619" transform="translate(601,520)"/>
<path d="M0 0 C7.74004493 4.25261024 11.57683397 9.23133623 14.875 17.3125 C15.875 21.3125 15.875 21.3125 15.875 35.3125 C2.015 35.3125 -11.845 35.3125 -26.125 35.3125 C-23.30959849 43.38938804 -23.30959849 43.38938804 -17.50390625 48.39453125 C-14.04612838 49.72881335 -10.65408527 49.65055584 -7 49.625 C-6.24533447 49.62371094 -5.49066895 49.62242187 -4.71313477 49.62109375 C1.26762946 49.51860663 6.25867763 48.45205138 11.875 46.3125 C11.875 50.9325 11.875 55.5525 11.875 60.3125 C0.79965444 64.22144549 -13.55948238 65.82007766 -24.875 61.75 C-34.14276428 57.05890944 -39.46689028 50.28682917 -42.734375 40.484375 C-44.68337634 29.64792755 -43.78029237 18.27776022 -37.58203125 9.00390625 C-28.95295589 -1.75775524 -12.78221586 -5.42806427 0 0 Z " fill="#0D181B" transform="translate(586.125,421.6875)"/>
<path d="M0 0 C6.01071887 5.14616342 9.41526046 10.27439475 11 18 C11 22.95 11 27.9 11 33 C-2.86 33 -16.72 33 -31 33 C-27.11803399 42.627322 -27.11803399 42.627322 -22 46 C-12.3897877 49.2034041 -1.38166828 46.77975356 8 44 C8 48.29 8 52.58 8 57 C-2.58096882 61.77180947 -14.80455952 62.82783157 -26.22265625 60.28125 C-28.63652219 59.3559969 -30.77754431 58.31524233 -33 57 C-33.639375 56.66097656 -34.27875 56.32195312 -34.9375 55.97265625 C-41.32697658 52.1031672 -45.27050749 45.17431408 -47.375 38.125 C-49.46882801 27.26326721 -48.36161971 16.44915663 -42.08203125 7.1640625 C-31.97412281 -5.03698804 -13.87413681 -9.08658256 0 0 Z " fill="#0D171A" transform="translate(806,424)"/>
<path d="M0 0 C0.70441727 -0.00832352 1.40883453 -0.01664703 2.13459778 -0.02522278 C4.46429973 -0.04932669 6.79372172 -0.05809526 9.12353516 -0.06469727 C10.7439482 -0.07366343 12.3643604 -0.08278527 13.98477173 -0.09205627 C17.38260917 -0.10854995 20.78034804 -0.11624704 24.17822266 -0.11914062 C28.52865302 -0.12452444 32.87815483 -0.16220172 37.22832298 -0.20788479 C40.57582976 -0.23765286 43.92311288 -0.24486412 47.27074051 -0.24586678 C48.87431719 -0.25006975 50.4778945 -0.26250733 52.08134079 -0.28338432 C54.3270535 -0.31029554 56.57061369 -0.30547652 58.81640625 -0.29296875 C60.09309174 -0.2980394 61.36977722 -0.30311005 62.68515015 -0.30833435 C66.91722189 0.46769122 68.34498644 2.03099083 71.03759766 5.30639648 C72.52319336 7.58642578 72.52319336 7.58642578 73.71337891 9.88061523 C74.1484375 10.71270508 74.58349609 11.54479492 75.03173828 12.40209961 C75.46679688 13.25739258 75.90185547 14.11268555 76.35009766 14.99389648 C76.80449219 15.86079102 77.25888672 16.72768555 77.72705078 17.62084961 C81.03759766 24.01792139 81.03759766 24.01792139 81.03759766 26.30639648 C75.67044785 27.20443602 70.51244249 27.44942687 65.07641602 27.43579102 C64.20721024 27.43754333 63.33800446 27.43929565 62.44245911 27.44110107 C59.58743252 27.44547961 56.73246856 27.44259597 53.87744141 27.43920898 C51.88399748 27.43988311 49.89055363 27.44085405 47.89710999 27.44210815 C43.72705296 27.44357966 39.55701741 27.44144793 35.38696289 27.43676758 C30.048401 27.43106692 24.70988936 27.43435491 19.37132931 27.44034004 C15.25777306 27.44395725 11.14422868 27.44280179 7.03067207 27.44021225 C5.06233273 27.43954639 3.0939923 27.44035948 1.12565422 27.4426918 C-1.62646456 27.44523776 -4.37850246 27.44135048 -7.13061523 27.43579102 C-7.93961273 27.43781525 -8.74861023 27.43983948 -9.5821228 27.44192505 C-13.82037625 27.42610424 -17.78725528 27.14536597 -21.96240234 26.30639648 C-20.38505497 20.78122489 -17.81065138 16.04099793 -15.02490234 11.05639648 C-14.58210937 10.24170898 -14.13931641 9.42702148 -13.68310547 8.58764648 C-13.250625 7.80905273 -12.81814453 7.03045898 -12.37255859 6.22827148 C-11.98205322 5.52283203 -11.59154785 4.81739258 -11.18920898 4.09057617 C-8.19916702 -0.25792665 -4.86422586 0.04058868 0 0 Z " fill="#F6F9F7" transform="translate(157.96240234375,425.693603515625)"/>
<path d="M0 0 C1.3851556 1.13353561 2.76124376 2.2783072 4.125 3.4375 C4.68703125 3.89253906 5.2490625 4.34757813 5.828125 4.81640625 C7.25 6.0625 7.25 6.0625 9.125 8.4375 C8.88605763 12.84707292 7.21563997 14.7970594 4.0625 17.75 C3.32902344 18.44738281 2.59554687 19.14476562 1.83984375 19.86328125 C1.27394531 20.38277344 0.70804687 20.90226563 0.125 21.4375 C-3.46647775 19.84879925 -6.25144653 17.62969734 -9.3125 15.1875 C-24.62749932 3.46117946 -42.89018189 -0.36246195 -61.875 1.4375 C-76.04456423 3.46172346 -87.92727198 9.32175066 -98.875 18.4375 C-100.20278051 19.44486125 -101.5345199 20.44710064 -102.875 21.4375 C-105.96359947 20.08414405 -107.882964 18.62863751 -110.0625 16.0625 C-110.57167969 15.47726562 -111.08085937 14.89203125 -111.60546875 14.2890625 C-112.95059273 12.32725091 -113.45014402 10.761411 -113.875 8.4375 C-83.85410756 -21.44504732 -34.11870342 -25.86960901 0 0 Z " fill="#16B351" transform="translate(239.875,539.5625)"/>
<path d="M0 0 C5.665302 -1.08741579 11.47374213 -2.10368396 17 0 C21.8991484 4.3963572 24.96861632 10.43807189 27.94116211 16.23413086 C28.88471446 18.16615542 28.88471446 18.16615542 31 19 C31.2475 18.32582031 31.495 17.65164063 31.75 16.95703125 C34.34451729 10.81937628 37.43713207 3.99350601 43 0 C48.87501102 -1.6879408 55.03586333 -0.81860699 61 0 C59.44740939 3.342688 57.51927835 6.26223252 55.41015625 9.28125 C54.70826172 10.28800781 54.00636719 11.29476562 53.28320312 12.33203125 C52.55037109 13.37746094 51.81753906 14.42289063 51.0625 15.5 C50.33353516 16.54542969 49.60457031 17.59085938 48.85351562 18.66796875 C43.14040712 26.84750632 43.14040712 26.84750632 41.14233398 29.01757812 C39.70325404 30.98841468 39.70325404 30.98841468 40.5859375 33.41601562 C42.11181826 36.20433088 43.77657011 38.75705279 45.625 41.34375 C46.33140625 42.34277344 47.0378125 43.34179688 47.765625 44.37109375 C48.50296875 45.40363281 49.2403125 46.43617188 50 47.5 C51.46302241 49.54874292 52.92153718 51.60071407 54.375 53.65625 C55.02210938 54.56181641 55.66921875 55.46738281 56.3359375 56.40039062 C57.92357752 58.88061229 59.01220091 61.23366365 60 64 C45.11242604 65.67485207 45.11242604 65.67485207 40.265625 61.83203125 C38.23349175 58.97680527 36.58762178 56.12205004 35 53 C34.0130673 51.42921354 33.01482819 49.86541017 32 48.3125 C31.34 47.219375 30.68 46.12625 30 45 C29.24074219 46.03640625 28.48148438 47.0728125 27.69921875 48.140625 C26.6953241 49.51042517 25.69141721 50.88021637 24.6875 52.25 C23.93823242 53.27287109 23.93823242 53.27287109 23.17382812 54.31640625 C22.20482221 55.63836133 21.22804992 56.95466501 20.24291992 58.26464844 C18.89394676 60.06111011 18.89394676 60.06111011 17.71875 62.46875 C14.66510595 65.18926924 10.72253134 64.40724797 6.8125 64.25 C5.96751953 64.23195313 5.12253906 64.21390625 4.25195312 64.1953125 C2.16748427 64.14820586 0.08359856 64.07646233 -2 64 C2.26928051 57.53328115 6.63913028 51.13910093 11.0402832 44.76171875 C11.94118188 43.45527959 12.83837382 42.14627486 13.73144531 40.83447266 C14.55269089 39.64685925 15.39477315 38.47327905 16.26074219 37.31787109 C18.40963931 34.55187654 18.40963931 34.55187654 18.85229492 31.21655273 C17.65754229 28.10937451 15.84266614 25.49749304 13.96484375 22.7734375 C13.56672989 22.18454742 13.16861603 21.59565735 12.75843811 20.98892212 C11.4902661 19.11383023 10.21466547 17.24397571 8.9375 15.375 C7.6572014 13.49860513 6.37869342 11.62111577 5.10585022 9.73965454 C4.31461693 8.57025482 3.51902684 7.40378904 2.71873474 6.24057007 C0 2.22504405 0 2.22504405 0 0 Z " fill="#0D181B" transform="translate(810,543)"/>
<path d="M0 0 C0.98613281 0.00322266 1.97226562 0.00644531 2.98828125 0.00976562 C4.02082031 0.01814453 5.05335938 0.02652344 6.1171875 0.03515625 C7.67759766 0.04192383 7.67759766 0.04192383 9.26953125 0.04882812 C11.84377437 0.06063658 14.41798803 0.0785724 16.9921875 0.09765625 C16.9921875 4.05765625 16.9921875 8.01765625 16.9921875 12.09765625 C16.08855469 12.14664062 15.18492187 12.195625 14.25390625 12.24609375 C12.48466797 12.35824219 12.48466797 12.35824219 10.6796875 12.47265625 C8.92205078 12.57707031 8.92205078 12.57707031 7.12890625 12.68359375 C3.83518863 12.88379372 3.83518863 12.88379372 0.9921875 15.09765625 C0.41029484 17.52287119 0.41029484 17.52287119 0.3046875 20.22265625 C0.2015625 21.83140625 0.0984375 23.44015625 -0.0078125 25.09765625 C4.9421875 25.09765625 9.8921875 25.09765625 14.9921875 25.09765625 C14.9921875 29.38765625 14.9921875 33.67765625 14.9921875 38.09765625 C10.3721875 38.09765625 5.7521875 38.09765625 0.9921875 38.09765625 C0.9921875 54.59765625 0.9921875 71.09765625 0.9921875 88.09765625 C-4.9478125 88.09765625 -10.8878125 88.09765625 -17.0078125 88.09765625 C-17.0078125 71.59765625 -17.0078125 55.09765625 -17.0078125 38.09765625 C-20.3078125 38.09765625 -23.6078125 38.09765625 -27.0078125 38.09765625 C-27.0078125 33.80765625 -27.0078125 29.51765625 -27.0078125 25.09765625 C-23.3778125 25.09765625 -19.7478125 25.09765625 -16.0078125 25.09765625 C-16.05421875 24.08445312 -16.100625 23.07125 -16.1484375 22.02734375 C-16.18598008 20.67581093 -16.22237756 19.32424597 -16.2578125 17.97265625 C-16.30808594 16.97492188 -16.30808594 16.97492188 -16.359375 15.95703125 C-16.46015681 10.81715872 -15.2379177 8.03838459 -12.0078125 4.09765625 C-7.82990738 1.21291224 -5.04377139 -0.02898719 0 0 Z " fill="#121C1F" transform="translate(524.0078125,395.90234375)"/>
<path d="M0 0 C0.91136719 -0.00773438 1.82273437 -0.01546875 2.76171875 -0.0234375 C8.06476911 -0.00813288 12.48397791 0.51368466 17.5 2.25 C17.5 6.87 17.5 11.49 17.5 16.25 C16.51 15.92 15.52 15.59 14.5 15.25 C10.15067489 14.16656597 5.83709005 13.99062012 1.375 13.9375 C0.694375 13.92009766 0.01375 13.90269531 -0.6875 13.88476562 C-5.36769592 13.88931834 -8.54279675 14.76727749 -12.5 17.25 C-18.18411616 24.47036377 -18.07946549 31.31285925 -17.5 40.25 C-16.09856192 45.15503329 -13.4867203 47.83919591 -9.13671875 50.33984375 C-0.73327045 53.24058961 9.12484318 51.60092121 17.5 49.25 C17.5 53.87 17.5 58.49 17.5 63.25 C6.94021823 67.14899635 -5.75251909 68.37449452 -16.5 64.25 C-25.0799353 60.26177319 -30.77996673 55.00112996 -34.375 46.1875 C-37.13431519 36.6941418 -36.70360493 25.24635147 -32.5 16.25 C-28.3760578 8.88770576 -22.26741076 3.99983616 -14.37109375 1.1015625 C-9.51431676 0.03316958 -4.95561195 -0.04205611 0 0 Z " fill="#0D181B" transform="translate(571.5,542.75)"/>
<path d="M0 0 C5.28 0 10.56 0 16 0 C16.01981934 2.20091309 16.03963867 4.40182617 16.06005859 6.66943359 C16.12687508 13.92987006 16.20451559 21.19016144 16.28752708 28.45042992 C16.33753753 32.85363979 16.38386693 37.25682512 16.421875 41.66015625 C16.45866811 45.90721588 16.50501133 50.15407244 16.55806351 54.40095901 C16.57663935 56.02368239 16.59173545 57.64644935 16.60334396 59.26923752 C16.62015225 61.53696372 16.64917295 63.80422158 16.68115234 66.07177734 C16.69447601 67.36417328 16.70779968 68.65656921 16.7215271 69.98812866 C16.68693383 73.11293605 16.68693383 73.11293605 19 75 C20.98821313 75.39764263 22.98944339 75.73775349 25 76 C25.02686553 77.97909398 25.04633375 79.95828971 25.0625 81.9375 C25.07410156 83.03964844 25.08570313 84.14179687 25.09765625 85.27734375 C25 88 25 88 24 89 C21.75365446 89.15289263 19.50136826 89.22197467 17.25 89.25 C16.01765625 89.27578125 14.7853125 89.3015625 13.515625 89.328125 C9.09631042 88.91565564 6.73358384 87.34834298 3.3125 84.6875 C-0.21239449 80.15549279 -0.28374805 74.75762737 -0.22705078 69.25048828 C-0.22734283 68.49858719 -0.22763489 67.7466861 -0.22793579 66.97200012 C-0.22655052 64.50465055 -0.21102748 62.03760885 -0.1953125 59.5703125 C-0.19157951 57.85253057 -0.18873389 56.1347465 -0.18673706 54.41696167 C-0.17912311 49.90915994 -0.15949395 45.40148833 -0.1373291 40.89373779 C-0.11682235 36.28855143 -0.10772503 31.68334392 -0.09765625 27.078125 C-0.07624583 18.05201714 -0.04108204 9.02603978 0 0 Z " fill="#0C1719" transform="translate(436,519)"/>
<path d="M0 0 C14.22316029 -0.68290008 26.85672509 4.94725678 37.421875 14.07421875 C38.55411908 15.10800682 39.68204758 16.14667219 40.796875 17.19921875 C36.91895212 22.12830021 33.03570667 25.74158985 27.796875 29.19921875 C27.10464844 28.51085937 27.10464844 28.51085937 26.3984375 27.80859375 C18.29986985 20.19017834 10.7938846 17.57356219 -0.30078125 17.72851562 C-10.55416085 18.18573464 -17.05485649 22.0908847 -24.203125 29.19921875 C-29.23993997 26.12799011 -33.14823267 22.47005209 -37.203125 18.19921875 C-33.59345443 13.10321325 -29.66915789 9.97282199 -24.265625 6.88671875 C-23.68087402 6.54962891 -23.09612305 6.21253906 -22.49365234 5.86523438 C-15.30226911 1.90447254 -8.04234604 0.72723342 0 0 Z " fill="#16B351" transform="translate(186.203125,553.80078125)"/>
<path d="M0 0 C2.77288281 2.77288281 1.33446389 11.02067746 1.375 14.75 C1.41238281 16.0390625 1.44976563 17.328125 1.48828125 18.65625 C1.49988281 19.89890625 1.51148438 21.1415625 1.5234375 22.421875 C1.54325684 23.56237305 1.56307617 24.70287109 1.58349609 25.87792969 C0.82255816 29.94942519 -0.86764897 31.38863066 -4 34 C-8.56185538 36.73711323 -13.83912681 36.64614464 -19 36 C-23.59699259 33.95689218 -26.27919495 31.20978181 -28.30078125 26.671875 C-30.20656749 19.38942925 -30.70809009 9.87369922 -26.875 3.1875 C-19.84886639 -5.67834548 -9.29936672 -4.22698487 0 0 Z " fill="#F7F7F7" transform="translate(940,436)"/>
<path d="M0 0 C5.16563577 2.82647995 7.46759517 6.32488945 9.3125 11.8125 C10.15245288 19.44044417 10.0951195 26.5285404 5.3125 32.8125 C1.21880252 36.80385504 -1.5113703 37.65130521 -7.0625 38.0625 C-12.25671436 37.70427832 -15.31327261 36.22490037 -18.9375 32.5 C-23.28765728 25.81940132 -23.62329599 18.56353751 -22.6875 10.8125 C-20.87944577 6.17350826 -18.07740041 2.30011023 -13.6875 -0.1875 C-8.78222524 -1.82259159 -4.91018173 -1.58124496 0 0 Z " fill="#F8F8F8" transform="translate(783.6875,557.1875)"/>
<path d="M0 0 C4.85907397 3.35507488 7.32456089 7.06889395 8.625 12.8125 C9.39454755 20.84549639 8.43344815 27.32091582 3.3125 33.6875 C-1.57220292 37.54982324 -6.22809972 38.4376085 -12.375 37.8125 C-13.97202315 37.18735224 -15.54913505 36.50956099 -17.10546875 35.7890625 C-17.90750732 35.42119629 -18.7095459 35.05333008 -19.53588867 34.67431641 C-20.14279541 34.38991699 -20.74970215 34.10551758 -21.375 33.8125 C-21.57344229 29.63185528 -21.71821495 25.45373001 -21.81445312 21.26977539 C-21.85457871 19.8483912 -21.90909912 18.42733514 -21.97851562 17.00708008 C-22.53749409 5.27264253 -22.53749409 5.27264253 -19.73876953 1.75732422 C-13.49024421 -2.37061425 -6.92451891 -2.4364048 0 0 Z " fill="#F8F8F8" transform="translate(724.375,434.1875)"/>
<path d="M0 0 C5.754375 -0.0928125 5.754375 -0.0928125 11.625 -0.1875 C13.42251709 -0.22846802 13.42251709 -0.22846802 15.25634766 -0.27026367 C25.34892889 -0.34907224 25.34892889 -0.34907224 30 3 C32.80295101 5.85639711 33.45107698 7.96862006 33.5 11.9375 C33.37754734 15.71683449 33.13727468 16.80620045 30.875 20 C24.41450225 24.4942593 18.20624508 24.25118658 10.625 24.125 C7.11875 24.08375 3.6125 24.0425 0 24 C0 16.08 0 8.16 0 0 Z " fill="#F9F9F8" transform="translate(685,570)"/>
<path d="M0 0 C3.63 -0.0825 7.26 -0.165 11 -0.25 C12.12792969 -0.28641602 13.25585938 -0.32283203 14.41796875 -0.36035156 C20.58135087 -0.42772281 26.07360343 -0.06427717 31 4 C33.291882 7.82135578 33.21424285 10.48099238 32.6015625 14.8125 C31.63848558 18.3145979 29.88136289 19.88700055 27 22 C21.44699066 24.49407462 16.08223947 24.22912499 10.125 24.125 C6.78375 24.08375 3.4425 24.0425 0 24 C0 16.08 0 8.16 0 0 Z " fill="#F8F8F8" transform="translate(376,570)"/>
<path d="M0 0 C4.455 -0.0928125 4.455 -0.0928125 9 -0.1875 C9.91910156 -0.21481201 10.83820312 -0.24212402 11.78515625 -0.27026367 C17.55288416 -0.32776782 21.75117284 0.57161285 27 3 C29.30007688 5.36977618 29.93607831 6.86590553 30.12109375 10.1484375 C29.89925523 14.45639849 29.35648069 16.5497086 26.625 20 C23.03120241 22.7381315 20.50082386 23.12424742 16.11328125 23.09765625 C15.26805908 23.09515869 14.42283691 23.09266113 13.55200195 23.09008789 C12.48296631 23.08098389 11.41393066 23.07187988 10.3125 23.0625 C5.2078125 23.0315625 5.2078125 23.0315625 0 23 C0 15.41 0 7.82 0 0 Z " fill="#F7F7F6" transform="translate(685,533)"/>
<path d="M0 0 C2.990625 -0.061875 5.98125 -0.12375 9.0625 -0.1875 C9.99070557 -0.21481201 10.91891113 -0.24212402 11.87524414 -0.27026367 C18.12545015 -0.33237171 22.99489024 0.47958536 27.9375 4.625 C29.62134577 8.38889055 29.65021076 11.95424417 29 16 C26.63807364 20.11150144 24.48584808 21.6857867 20 23 C16.55727355 23.23718773 13.13620203 23.18788073 9.6875 23.125 C4.8921875 23.063125 4.8921875 23.063125 0 23 C0 15.41 0 7.82 0 0 Z " fill="#F7F7F6" transform="translate(376,533)"/>
<path d="M0 0 C1.42543779 2.15231666 1.77302607 3.72069157 2.0546875 6.28125 C2.20550781 7.44140625 2.20550781 7.44140625 2.359375 8.625 C2.1796875 10.78125 2.1796875 10.78125 1.02197266 12.38891602 C-2.87512621 15.33420555 -8.63266508 14.24755677 -13.3203125 14.21875 C-15.05087891 14.2487207 -15.05087891 14.2487207 -16.81640625 14.27929688 C-18.47349609 14.27833008 -18.47349609 14.27833008 -20.1640625 14.27734375 C-21.17662109 14.27919678 -22.18917969 14.2810498 -23.23242188 14.28295898 C-25.8203125 13.78125 -25.8203125 13.78125 -27.68164062 11.94555664 C-29.30019707 8.86911949 -28.81417704 7.04680492 -27.8203125 3.78125 C-24.17848772 1.35336682 -20.73538941 0.86024751 -16.5078125 0.15625 C-15.38729492 -0.04484375 -15.38729492 -0.04484375 -14.24414062 -0.25 C-3.20949964 -2.14884955 -3.20949964 -2.14884955 0 0 Z " fill="#F7FAF8" transform="translate(252.8203125,471.21875)"/>
<path d="M0 0 C2.3984375 0.81640625 2.3984375 0.81640625 4.3984375 2.81640625 C4.7109375 6.31640625 4.7109375 6.31640625 4.3984375 9.81640625 C-0.27429411 12.93156066 -5.10579214 12.18500092 -10.6015625 12.19140625 C-11.70757812 12.21589844 -12.81359375 12.24039062 -13.953125 12.265625 C-15.01273438 12.26949219 -16.07234375 12.27335937 -17.1640625 12.27734375 C-18.13472656 12.28556152 -19.10539062 12.2937793 -20.10546875 12.30224609 C-22.6015625 11.81640625 -22.6015625 11.81640625 -24.421875 9.97509766 C-26.00983232 7.0693198 -25.94205741 5.08515741 -25.6015625 1.81640625 C-22.04623968 -7.57980407 -7.47772344 -1.8743375 0 0 Z " fill="#F8FAF8" transform="translate(145.6015625,473.18359375)"/>
<path d="M0 0 C0.70189453 0.00451172 1.40378906 0.00902344 2.12695312 0.01367188 C3.85550538 0.02543073 5.58401365 0.04336546 7.3125 0.0625 C7.44786022 2.14403935 7.54465465 4.22811206 7.625 6.3125 C7.68300781 7.47265625 7.74101562 8.6328125 7.80078125 9.828125 C7.3125 13.0625 7.3125 13.0625 4.98046875 15.421875 C-0.03320996 18.50495707 -4.93333244 18.8504911 -10.6875 18.0625 C-13.82331215 16.05558022 -15.28399827 14.76056979 -16.15625 11.08984375 C-16.3125 9 -16.3125 9 -15.6875 5.0625 C-10.98755367 0.10850251 -6.48450571 -0.07871015 0 0 Z " fill="#F9F9F9" transform="translate(499.6875,578.9375)"/>
<path d="M0 0 C0.75410156 0.00451172 1.50820313 0.00902344 2.28515625 0.01367188 C4.14847127 0.02546501 6.01174555 0.04340058 7.875 0.0625 C7.9830023 2.16554477 8.06058987 4.27016909 8.125 6.375 C8.17140625 7.54675781 8.2178125 8.71851563 8.265625 9.92578125 C7.875 13.0625 7.875 13.0625 6.046875 14.91796875 C0.86757809 17.64734644 -4.39407862 17.79873516 -10.125 17.0625 C-13.75897247 14.63985169 -14.86294164 13.32038015 -15.75 9.0625 C-14.92430566 5.09916717 -13.19058569 3.61715474 -10.125 1.0625 C-6.93675432 -0.53162284 -3.49603338 -0.03924735 0 0 Z " fill="#F9F9F9" transform="translate(462.125,455.9375)"/>
<path d="M0 0 C2.76789246 2.37247925 4.45519396 4.66702585 6.1875 7.875 C6.1875 9.525 6.1875 11.175 6.1875 12.875 C-2.7225 12.875 -11.6325 12.875 -20.8125 12.875 C-19.64583333 4.70833333 -19.64583333 4.70833333 -15.8125 0.875 C-10.84303765 -2.11085343 -5.32704947 -2.13081979 0 0 Z " fill="#F8F8F8" transform="translate(580.8125,433.125)"/>
<path d="M0 0 C2.76789246 2.37247925 4.45519396 4.66702585 6.1875 7.875 C6.1875 9.525 6.1875 11.175 6.1875 12.875 C-2.7225 12.875 -11.6325 12.875 -20.8125 12.875 C-19.64583333 4.70833333 -19.64583333 4.70833333 -15.8125 0.875 C-10.84303765 -2.11085343 -5.32704947 -2.13081979 0 0 Z " fill="#F8F8F8" transform="translate(863.8125,433.125)"/>
<path d="M0 0 C3.04256512 2.05196252 4.27398581 3.43577165 5.6875 6.8125 C5.6875 8.7925 5.6875 10.7725 5.6875 12.8125 C-3.2225 12.8125 -12.1325 12.8125 -21.3125 12.8125 C-20.06432482 5.32344891 -20.06432482 5.32344891 -17.3125 1.8125 C-11.60807493 -2.0346704 -6.33318492 -2.27038705 0 0 Z " fill="#F7F8F7" transform="translate(796.3125,433.1875)"/>
<path d="M0 0 C3.4375 1.75 3.4375 1.75 6 4 C6.66015625 6.140625 6.66015625 6.140625 7 8 C5.45245118 9.06375201 3.88621816 10.10036014 2.3125 11.125 C1.44238281 11.70507812 0.57226562 12.28515625 -0.32421875 12.8828125 C-3 14 -3 14 -5.5625 13.3125 C-6.366875 12.879375 -7.17125 12.44625 -8 12 C-9.10794922 11.47019531 -9.10794922 11.47019531 -10.23828125 10.9296875 C-10.92277344 10.58164062 -11.60726562 10.23359375 -12.3125 9.875 C-13.35857422 9.34519531 -13.35857422 9.34519531 -14.42578125 8.8046875 C-14.94527344 8.53914062 -15.46476563 8.27359375 -16 8 C-12.92032612 1.14988427 -7.22143757 -1.43567347 0 0 Z " fill="#13AF46" transform="translate(192,585)"/>
<path d="M0 0 C0.33 0 0.66 0 1 0 C1 27.72 1 55.44 1 84 C5.62 84 10.24 84 15 84 C15 74.76 15 65.52 15 56 C15.66 56.33 16.32 56.66 17 57 C17 66.57 17 76.14 17 86 C11.39 86 5.78 86 0 86 C0 57.62 0 29.24 0 0 Z " fill="#000203" transform="translate(686,422)"/>
<path d="M0 0 C5.28 0 10.56 0 16 0 C16.05404449 2.75026417 16.09369306 5.49946203 16.125 8.25 C16.15013672 9.41595703 16.15013672 9.41595703 16.17578125 10.60546875 C16.18222656 11.35957031 16.18867188 12.11367188 16.1953125 12.890625 C16.20578613 13.58188477 16.21625977 14.27314453 16.22705078 14.98535156 C16 17 16 17 14 21 C14 15.06 14 9.12 14 3 C10.04 3 6.08 3 2 3 C2 24.12 2 45.24 2 67 C1.67 67 1.34 67 1 67 C0.67 44.89 0.34 22.78 0 0 Z " fill="#1B2426" transform="translate(436,519)"/>
<path d="M0 0 C0.33 0 0.66 0 1 0 C1 2.31 1 4.62 1 7 C-0.26183105 7.02505615 -1.52366211 7.0501123 -2.82373047 7.07592773 C-7.49408569 7.16992106 -12.16428937 7.27016131 -16.83447266 7.37231445 C-18.85787416 7.41569395 -20.88131299 7.45736678 -22.90478516 7.49731445 C-25.80903384 7.55494408 -28.71309411 7.6186594 -31.6171875 7.68359375 C-32.52556366 7.70030624 -33.43393982 7.71701874 -34.36984253 7.73423767 C-35.21056305 7.75418289 -36.05128357 7.77412811 -36.91748047 7.79467773 C-37.65916473 7.81022202 -38.400849 7.8257663 -39.16500854 7.84178162 C-41.09674104 7.89473496 -41.09674104 7.89473496 -43 9 C-42.34 7.68 -41.68 6.36 -41 5 C-27.8 5 -14.6 5 -1 5 C-0.67 3.35 -0.34 1.7 0 0 Z " fill="#010607" transform="translate(601,450)"/>
<path d="M0 0 C0 4.62 0 9.24 0 14 C-4.1196377 15.29243536 -7.66831683 16.26252625 -12 16 C-8.55549263 13.70366176 -6.06187717 13.45983515 -2 13 C-2 9.7 -2 6.4 -2 3 C-2.845625 3.309375 -3.69125 3.61875 -4.5625 3.9375 C-12.90321997 6.51554072 -21.80923516 7.36031378 -30 4 C-26.23333596 2.74444532 -22.78640427 3.02074073 -18.875 3.125 C-12.27236192 3.23104406 -5.99453525 0 0 0 Z " fill="#050809" transform="translate(598,468)"/>
<path d="M0 0 C0.46283145 4.75045059 0.71358909 9.26777763 0 14 C-2.96434758 17.55168918 -6.72865234 18.57621745 -11 20 C-12.39439664 20.06665376 -13.79169875 20.08538199 -15.1875 20.0625 C-17.0746875 20.0315625 -17.0746875 20.0315625 -19 20 C-19 19.67 -19 19.34 -19 19 C-18.16855469 18.80664062 -17.33710938 18.61328125 -16.48046875 18.4140625 C-14.85044922 18.02347656 -14.85044922 18.02347656 -13.1875 17.625 C-12.10855469 17.36976563 -11.02960938 17.11453125 -9.91796875 16.8515625 C-6.84466657 16.11267119 -6.84466657 16.11267119 -4 14 C-3.48952682 10.91469117 -3.48952682 10.91469117 -3.4375 7.4375 C-3.35981158 5.28812042 -3.22984875 3.13846618 -3 1 C-1 0 -1 0 0 0 Z " fill="#1F2426" transform="translate(473,455)"/>
<path d="M0 0 C4.95 0 9.9 0 15 0 C15 4.29 15 8.58 15 13 C10.38 13 5.76 13 1 13 C1.33 12.34 1.66 11.68 2 11 C5.63 11 9.26 11 13 11 C13 7.7 13 4.4 13 1 C8.71 1 4.42 1 0 1 C0 0.67 0 0.34 0 0 Z " fill="#000304" transform="translate(524,421)"/>
<path d="M0 0 C0.66 0.33 1.32 0.66 2 1 C1.7834375 1.85271484 1.7834375 1.85271484 1.5625 2.72265625 C0.38454495 7.62262205 -0.21427527 11.9645312 0 17 C0.33 17 0.66 17 1 17 C1.66 20.96 2.32 24.92 3 29 C2.01 29 1.02 29 0 29 C-1.61988753 24.0117749 -2.27190003 19.79980704 -2.25 14.5 C-2.25515625 13.2521875 -2.2603125 12.004375 -2.265625 10.71875 C-1.98592555 6.80295775 -1.20634176 3.7147667 0 0 Z " fill="#0A0F10" transform="translate(538,562)"/>
<path d="M0 0 C0.99 0 1.98 0 3 0 C3.08384078 4.27587998 2.84728203 7.76358987 2 12 C-8.23 12 -18.46 12 -29 12 C-29 11.67 -29 11.34 -29 11 C-19.43 11 -9.86 11 0 11 C0 7.37 0 3.74 0 0 Z " fill="#131E22" transform="translate(882,443)"/>
<path d="M0 0 C0 4.62 0 9.24 0 14 C-4.17642656 15.67057063 -5.66895852 16.24868781 -9.8125 16.125 C-10.60269531 16.10695313 -11.39289062 16.08890625 -12.20703125 16.0703125 C-12.79871094 16.04710937 -13.39039063 16.02390625 -14 16 C-14 15.67 -14 15.34 -14 15 C-8.555 14.01 -8.555 14.01 -3 13 C-2.67 9.7 -2.34 6.4 -2 3 C-3.32 3.33 -4.64 3.66 -6 4 C-6 3.34 -6 2.68 -6 2 C-2.25 0 -2.25 0 0 0 Z " fill="#040808" transform="translate(589,592)"/>
<path d="M0 0 C1.41152344 -0.02126953 1.41152344 -0.02126953 2.8515625 -0.04296875 C5.375 0.1875 5.375 0.1875 8.375 2.1875 C6.02647472 3.36176264 4.63725935 3.30258173 2.0234375 3.28515625 C1.17265625 3.28193359 0.321875 3.27871094 -0.5546875 3.27539062 C-1.44414062 3.26701172 -2.33359375 3.25863281 -3.25 3.25 C-4.1471875 3.24548828 -5.044375 3.24097656 -5.96875 3.23632812 C-8.18756648 3.22452591 -10.40625018 3.20806155 -12.625 3.1875 C-9.15324412 -0.28425588 -4.71766237 0.03249079 0 0 Z " fill="#23292A" transform="translate(496.625,541.8125)"/>
<path d="M0 0 C1.70884005 1.62339805 3.37446717 3.29319053 5 5 C5 5.66 5 6.32 5 7 C-0.61 7 -6.22 7 -12 7 C-12 6.01 -12 5.02 -12 4 C-7.71 4 -3.42 4 1 4 C0.67 2.68 0.34 1.36 0 0 Z " fill="#040709" transform="translate(865,600)"/>
<path d="M0 0 C0 0.99 0 1.98 0 3 C-5.94 3 -11.88 3 -18 3 C-18 2.67 -18 2.34 -18 2 C-12.12116651 -0.61281488 -6.29268272 -0.18328202 0 0 Z " fill="#181E1F" transform="translate(462,430)"/>
<path d="M0 0 C0.83265381 0.04713135 1.66530762 0.0942627 2.52319336 0.14282227 C3.871875 0.21533203 3.871875 0.21533203 5.24780273 0.28930664 C6.19333008 0.34538086 7.13885742 0.40145508 8.11303711 0.45922852 C9.53712891 0.53753906 9.53712891 0.53753906 10.98999023 0.61743164 C13.34380663 0.74754209 15.6972441 0.88251963 18.05053711 1.02172852 C18.05053711 1.35172852 18.05053711 1.68172852 18.05053711 2.02172852 C11.78053711 2.02172852 5.51053711 2.02172852 -0.94946289 2.02172852 C-0.94946289 5.32172852 -0.94946289 8.62172852 -0.94946289 12.02172852 C-1.93946289 12.51672852 -1.93946289 12.51672852 -2.94946289 13.02172852 C-2.97632842 11.04263454 -2.99579665 9.06343881 -3.01196289 7.08422852 C-3.02356445 5.98208008 -3.03516602 4.87993164 -3.04711914 3.74438477 C-2.91398048 0.03247893 -2.91398048 0.03247893 0 0 Z " fill="#303639" transform="translate(685.949462890625,567.978271484375)"/>
<path d="M0 0 C6.27 0 12.54 0 19 0 C19 0.66 19 1.32 19 2 C16.29283758 2.90238747 14.76223232 3.11851302 11.98828125 3.09765625 C10.85229492 3.09282227 10.85229492 3.09282227 9.69335938 3.08789062 C8.90767578 3.07951172 8.12199219 3.07113281 7.3125 3.0625 C6.51521484 3.05798828 5.71792969 3.05347656 4.89648438 3.04882812 C2.93095743 3.0370585 0.96546915 3.01912348 -1 3 C-0.67 2.01 -0.34 1.02 0 0 Z " fill="#353839" transform="translate(640,543)"/>
<path d="M0 0 C1.98 0.99 1.98 0.99 4 2 C3.67 2.33 3.34 2.66 3 3 C2.87462259 5.14307896 2.82425636 7.29078886 2.8125 9.4375 C2.79832031 10.61183594 2.78414062 11.78617187 2.76953125 12.99609375 C2.68100744 16.11496902 2.68100744 16.11496902 5 18 C3.35 17.67 1.7 17.34 0 17 C0 11.39 0 5.78 0 0 Z " fill="#05090C" transform="translate(611,462)"/>
<path d="M0 0 C5.94 0 11.88 0 18 0 C17.34 1.32 16.68 2.64 16 4 C15.34 3.67 14.68 3.34 14 3 C11.62876754 2.76970044 9.25258057 2.58880058 6.875 2.4375 C5.59367188 2.35371094 4.31234375 2.26992188 2.9921875 2.18359375 C1.51105469 2.09271484 1.51105469 2.09271484 0 2 C0 1.34 0 0.68 0 0 Z " fill="#343839" transform="translate(853,543)"/>
<path d="M0 0 C-0.34021964 3.17538332 -1.02466604 4.02276865 -3.4375 6.25 C-6 8 -6 8 -8 8 C-8.33 9.98 -8.66 11.96 -9 14 C-9.33 14 -9.66 14 -10 14 C-9.88029727 7.05724144 -9.88029727 7.05724144 -7.4453125 4.1328125 C-2.67972488 0 -2.67972488 0 0 0 Z " fill="#0C1113" transform="translate(441,449)"/>
<path d="M0 0 C5.61 0 11.22 0 17 0 C17.33 0.66 17.66 1.32 18 2 C9.585 2.495 9.585 2.495 1 3 C0.67 2.01 0.34 1.02 0 0 Z " fill="#323738" transform="translate(810,543)"/>
<path d="M0 0 C1.65 0 3.3 0 5 0 C4.01 0.33 3.02 0.66 2 1 C2 4.3 2 7.6 2 11 C3.65 10.67 5.3 10.34 7 10 C5 12 5 12 0 13 C0 8.71 0 4.42 0 0 Z " fill="#090C0E" transform="translate(436,423)"/>
<path d="M0 0 C1.74627478 2.61941217 2.38722388 4.03824877 3 7 C1.02 7.99 1.02 7.99 -1 9 C-2.32 7.35 -3.64 5.7 -5 4 C-4.34 4 -3.68 4 -3 4 C-2.67 3.34 -2.34 2.68 -2 2 C-1.34 2 -0.68 2 0 2 C0 1.34 0 0.68 0 0 Z " fill="#10AC42" transform="translate(239,552)"/>
<path d="M0 0 C1.65 0 3.3 0 5 0 C4.01 0.33 3.02 0.66 2 1 C2 4.3 2 7.6 2 11 C2.99 11.33 3.98 11.66 5 12 C3.35 12.33 1.7 12.66 0 13 C0 8.71 0 4.42 0 0 Z " fill="#0D1112" transform="translate(473,546)"/>
<path d="M0 0 C1.4540625 0.0309375 1.4540625 0.0309375 2.9375 0.0625 C2.9375 1.0525 2.9375 2.0425 2.9375 3.0625 C-3.9925 3.0625 -10.9225 3.0625 -18.0625 3.0625 C-18.0625 2.7325 -18.0625 2.4025 -18.0625 2.0625 C-17.06347656 2.00191406 -16.06445312 1.94132813 -15.03515625 1.87890625 C-13.74480469 1.79511719 -12.45445312 1.71132813 -11.125 1.625 C-9.83722656 1.54378906 -8.54945313 1.46257813 -7.22265625 1.37890625 C-3.69545663 1.02575029 -3.51377698 0.07170973 0 0 Z " fill="#172326" transform="translate(399.0625,519.9375)"/>
<path d="M0 0 C2.14965431 3.22448147 2.22152284 3.79930965 1.9765625 7.44921875 C1.925 8.29677734 1.8734375 9.14433594 1.8203125 10.01757812 C1.75585938 10.89865234 1.69140625 11.77972656 1.625 12.6875 C1.56828125 13.58017578 1.5115625 14.47285156 1.453125 15.39257812 C1.31173702 17.59587413 1.16034022 19.79801539 1 22 C0.67 22 0.34 22 0 22 C-0.19590444 18.52125243 -0.38031592 15.04199096 -0.5625 11.5625 C-0.61857422 10.56927734 -0.67464844 9.57605469 -0.73242188 8.55273438 C-0.78076172 7.60849609 -0.82910156 6.66425781 -0.87890625 5.69140625 C-0.9260376 4.81685791 -0.97316895 3.94230957 -1.02172852 3.04125977 C-1 1 -1 1 0 0 Z " fill="#172225" transform="translate(807,561)"/>
<path d="M0 0 C-7.71428571 4 -7.71428571 4 -12 4 C-12.33 4.99 -12.66 5.98 -13 7 C-13.99 6.67 -14.98 6.34 -16 6 C-11.97674649 1.03009861 -6.15921636 -0.45067437 0 0 Z " fill="#13AB31" transform="translate(178,556)"/>
<path d="M0 0 C0.2396943 5.63281599 -0.61470179 10.54538831 -2 16 C-2.33 16 -2.66 16 -3 16 C-3 11.05 -3 6.1 -3 1 C-1 0 -1 0 0 0 Z " fill="#192226" transform="translate(750,444)"/>
<path d="M0 0 C0.763125 0.061875 1.52625 0.12375 2.3125 0.1875 C2.3125 0.8475 2.3125 1.5075 2.3125 2.1875 C4.6225 2.1875 6.9325 2.1875 9.3125 2.1875 C9.3125 2.5175 9.3125 2.8475 9.3125 3.1875 C4.3625 3.1875 -0.5875 3.1875 -5.6875 3.1875 C-2.6875 0.1875 -2.6875 0.1875 0 0 Z " fill="#D4D6D7" transform="translate(455.6875,442.8125)"/>
<path d="M0 0 C5.28 0.33 10.56 0.66 16 1 C15.67 2.65 15.34 4.3 15 6 C14.34 5.67 13.68 5.34 13 5 C13 4.34 13 3.68 13 3 C6.07 2.505 6.07 2.505 -1 2 C-0.67 1.34 -0.34 0.68 0 0 Z " fill="#1A2427" transform="translate(852,544)"/>
<path d="M0 0 C3.96 0 7.92 0 12 0 C12 0.99 12 1.98 12 3 C10.37419034 2.88601335 8.74932843 2.75844341 7.125 2.625 C6.22007812 2.55539062 5.31515625 2.48578125 4.3828125 2.4140625 C2 2 2 2 0 0 Z " fill="#F1F2F2" transform="translate(384,409)"/>
<path d="M0 0 C0 0.99 0 1.98 0 3 C-1.28650706 3.69710731 -2.57940665 4.38242876 -3.875 5.0625 C-4.95394531 5.63677734 -4.95394531 5.63677734 -6.0546875 6.22265625 C-6.69664062 6.47917969 -7.33859375 6.73570312 -8 7 C-8.66 6.67 -9.32 6.34 -10 6 C-8.90398831 4.99106869 -7.79786082 3.99311775 -6.6875 3 C-6.07261719 2.443125 -5.45773437 1.88625 -4.82421875 1.3125 C-3 0 -3 0 0 0 Z " fill="#0A1113" transform="translate(510,591)"/>
<path d="M0 0 C1.65 0 3.3 0 5 0 C5 0.33 5 0.66 5 1 C7.64 1.33 10.28 1.66 13 2 C13 2.33 13 2.66 13 3 C8.71 3 4.42 3 0 3 C0 2.01 0 1.02 0 0 Z " fill="#EDEEEE" transform="translate(492,579)"/>
<path d="M0 0 C4.29 0.33 8.58 0.66 13 1 C13 1.33 13 1.66 13 2 C9.37 2.33 5.74 2.66 2 3 C1.34 4.65 0.68 6.3 0 8 C-1.08174162 4.63458162 -0.92538169 3.70152678 0 0 Z " fill="#24BB61" transform="translate(104,439)"/>
<path d="M0 0 C-1.4117783 0.53394179 -2.82970244 1.05165104 -4.25 1.5625 C-5.03890625 1.85253906 -5.8278125 2.14257812 -6.640625 2.44140625 C-9.19103452 3.04522837 -10.55322229 2.8473932 -13 2 C-12.34 2 -11.68 2 -11 2 C-11 1.34 -11 0.68 -11 0 C-6.97959015 -0.69584017 -3.91736581 -1.1700097 0 0 Z " fill="#0EAB31" transform="translate(138,394)"/>
<path d="M0 0 C0.33 0 0.66 0 1 0 C1.66 3.63 2.32 7.26 3 11 C2.01 11 1.02 11 0 11 C-1.7578125 5.04296875 -1.7578125 5.04296875 -2 3 C-1.34 2.01 -0.68 1.02 0 0 Z " fill="#182021" transform="translate(438,591)"/>
<path d="M0 0 C3.3 0 6.6 0 10 0 C6.55549263 2.29633824 4.06187717 2.54016485 0 3 C0 2.01 0 1.02 0 0 Z " fill="#F1F2F3" transform="translate(922,433)"/>
<path d="M0 0 C0.99 0 1.98 0 3 0 C2.44687265 4.02992782 1.8441938 8.02022924 1 12 C0.67 12 0.34 12 0 12 C0 8.04 0 4.08 0 0 Z " fill="#162023" transform="translate(419,537)"/>
<path d="M0 0 C-1.875 3.875 -1.875 3.875 -3 5 C-2.67 5.66 -2.34 6.32 -2 7 C-4.475 6.01 -4.475 6.01 -7 5 C-2.25 0 -2.25 0 0 0 Z " fill="#17B65E" transform="translate(185,587)"/>
<path d="M0 0 C0 0.66 0 1.32 0 2 C1.65 2 3.3 2 5 2 C5 2.33 5 2.66 5 3 C0.48382401 3.07654536 -3.59085217 3.10228696 -8 2 C-4.91190305 0.23537317 -3.76687864 0 0 0 Z " fill="#1E2527" transform="translate(384,395)"/>
<path d="M0 0 C-0.33 2.31 -0.66 4.62 -1 7 C-1.33 5.68 -1.66 4.36 -2 3 C-3.32 3.33 -4.64 3.66 -6 4 C-6 3.34 -6 2.68 -6 2 C-2.25 0 -2.25 0 0 0 Z " fill="#0B0F11" transform="translate(589,592)"/>
<path d="M0 0 C4.31392226 0.4793247 6.16569547 1.7457985 9 5 C8.34 6.32 7.68 7.64 7 9 C6.5875 8.071875 6.175 7.14375 5.75 6.1875 C4.06558214 3.11945319 2.91545917 1.80959535 0 0 Z " fill="#0AA72D" transform="translate(144,472)"/>
<path d="M0 0 C2.64 0 5.28 0 8 0 C8 0.99 8 1.98 8 3 C5.125 3.1875 5.125 3.1875 2 3 C1.34 2.01 0.68 1.02 0 0 Z " fill="#1A2224" transform="translate(397,604)"/>
</svg>
